<?xml version="1.0" encoding="UTF-8" standalone="yes"?><svg xmlns="http://www.w3.org/2000/svg" xmlns:v="https://vecta.io/nano" width="34" height="34" fill="#fff"><path fill-rule="evenodd" d="M17 32.3c8.201 0 14.85-6.85 14.85-15.3S25.201 1.7 17 1.7 2.15 8.55 2.15 17 8.799 32.3 17 32.3zm0 1.7c9.113 0 16.5-7.611 16.5-17S26.113 0 17 0 .5 7.611.5 17 7.887 34 17 34z" style=""/><path d="M10.332 12.036H8.367c-.024.606-.853 1.639-2.092 1.639v1.668c1.065 0 1.758-.407 1.965-.737h.09v7.359h2.003v-9.929zM16.228 22.1c2.168 0 3.737-1.197 3.746-2.807-.009-1.241-.933-2.254-2.092-2.453v-.068c1.008-.213 1.725-1.115 1.734-2.201-.009-1.537-1.442-2.671-3.388-2.671-1.96 0-3.393 1.134-3.383 2.671-.009 1.086.707 1.988 1.734 2.201v.068c-1.178.199-2.102 1.212-2.092 2.453-.009 1.61 1.555 2.807 3.742 2.807zm0-1.542c-.976 0-1.631-.587-1.621-1.43-.01-.858.678-1.479 1.621-1.479.928 0 1.612.621 1.621 1.479-.009.844-.66 1.43-1.621 1.43zm0-4.436c-.82 0-1.404-.548-1.395-1.333-.01-.771.565-1.309 1.395-1.309.815 0 1.385.538 1.395 1.309-.009.785-.589 1.333-1.395 1.333zm11.497.078h-2.318v-2.303h-1.579V16.2H21.51v1.6h2.318v2.303h1.579V17.8h2.318v-1.6z" style=""/></svg>