<svg width="108" height="36" viewBox="0 0 108 36" fill="none" xmlns="http://www.w3.org/2000/svg">
<path fill-rule="evenodd" clip-rule="evenodd" d="M25.7 6L13.1633 10.81C13.0647 10.848 13 10.9396 13 11.0415V12.5726C13 12.7102 13.1163 12.8218 13.2598 12.8218H38.1404C38.2839 12.8218 38.4002 12.7102 38.4002 12.5726V11.0415C38.4002 10.9396 38.3355 10.848 38.2369 10.81L25.7 6ZM23.1598 13.9053C23.1598 13.7677 23.2761 13.6561 23.4196 13.6561H27.9802C28.1237 13.6561 28.24 13.7677 28.24 13.9053V14.8687C28.24 15.0063 28.1237 15.1179 27.9802 15.1179H27.224V24.027H27.9802C28.1237 24.027 28.24 24.1386 28.24 24.2762V25.2396C28.24 25.3774 28.1237 25.4888 27.9802 25.4888H23.4196C23.2761 25.4888 23.1598 25.3774 23.1598 25.2396V24.2762C23.1598 24.1386 23.2761 24.027 23.4196 24.027H24.1758V15.1179H23.4196C23.2761 15.1179 23.1598 15.0063 23.1598 14.8687V13.9053ZM20.5283 13.906C20.5283 13.7684 20.412 13.6568 20.2685 13.6568H15.7081C15.5646 13.6568 15.4483 13.7684 15.4483 13.906V14.8693C15.4483 15.0071 15.5646 15.1186 15.7081 15.1186H16.4643V24.0278H15.7081C15.5646 24.0278 15.4483 24.1393 15.4483 24.277V25.2404C15.4483 25.378 15.5646 25.4897 15.7081 25.4897H20.2685C20.412 25.4897 20.5283 25.378 20.5283 25.2404V24.277C20.5283 24.1393 20.412 24.0278 20.2685 24.0278H19.5123V15.1186H20.2685C20.412 15.1186 20.5283 15.0071 20.5283 14.8693V13.906ZM30.9853 13.906C30.9853 13.7684 31.1018 13.6568 31.2451 13.6568H35.8056C35.9491 13.6568 36.0654 13.7684 36.0654 13.906V14.8693C36.0654 15.0071 35.9491 15.1186 35.8056 15.1186H35.0494V24.0278H35.8056C35.9491 24.0278 36.0654 24.1393 36.0654 24.277V25.2404C36.0654 25.378 35.9491 25.4897 35.8056 25.4897H31.2451C31.1018 25.4897 30.9853 25.378 30.9853 25.2404V24.277C30.9853 24.1393 31.1018 24.0278 31.2451 24.0278H32.0014V15.1186H31.2451C31.1018 15.1186 30.9853 15.0071 30.9853 14.8693V13.906ZM13.2598 29C13.1163 29 13 28.8885 13 28.7508V26.5914C13 26.4536 13.1163 26.3421 13.2598 26.3421H38.1404C38.2839 26.3421 38.4002 26.4536 38.4002 26.5914V28.7508C38.4002 28.8885 38.2839 29 38.1404 29H13.2598ZM54.8491 20.0383C54.7477 20.309 54.9568 20.594 55.2565 20.594H58.2494C58.4389 20.594 58.6065 20.4758 58.6628 20.3021L59.1917 18.6726H63.5546L64.1018 20.3057C64.1592 20.4776 64.326 20.594 64.514 20.594H68.0016C68.302 20.594 68.5111 20.3078 68.4086 20.0369L64.0459 8.51739C63.9838 8.3532 63.8211 8.24387 63.6391 8.24387H59.5697C59.3871 8.24387 59.2241 8.35387 59.1623 8.51882L54.8491 20.0383ZM62.6416 15.9468H60.0763L61.3126 12.1377H61.3655L62.6416 15.9468ZM43.0765 20.1787C43.0765 20.408 43.2704 20.594 43.5096 20.594H49.2363C50.7189 20.594 51.9043 20.2837 52.7927 19.6628C53.6811 19.0365 54.1253 18.1702 54.1253 17.0642C54.1253 16.2177 53.9252 15.5546 53.5252 15.075C53.1311 14.5897 52.6456 14.2736 52.069 14.127V14.093C52.5397 13.9351 52.9251 13.6303 53.2251 13.1789C53.5252 12.7274 53.6751 12.1603 53.6751 11.4774C53.6751 10.4447 53.284 9.65185 52.5014 9.0988C51.719 8.54578 50.563 8.26926 49.0333 8.26926H43.5096C43.2704 8.26926 43.0765 8.45522 43.0765 8.6846V20.1787ZM47.2507 17.9953V15.4135H48.601C49.0245 15.4135 49.3392 15.5321 49.5451 15.769C49.7512 16.0005 49.8541 16.3079 49.8541 16.6918C49.8541 17.0924 49.7512 17.4112 49.5451 17.6483C49.3392 17.8796 49.0245 17.9953 48.601 17.9953H47.2507ZM47.2507 13.2212V10.9526H48.4333C48.8333 10.9526 49.1215 11.0514 49.2981 11.2489C49.4804 11.4463 49.5716 11.7257 49.5716 12.0869C49.5716 12.448 49.4804 12.7274 49.2981 12.9249C49.1215 13.1224 48.8333 13.2212 48.4333 13.2212H47.2507ZM70.1508 20.594C69.9117 20.594 69.7177 20.408 69.7177 20.1787V8.6846C69.7177 8.45522 69.9117 8.26926 70.1508 8.26926H73.8262C73.9999 8.26926 74.1567 8.36869 74.2247 8.52187L77.0777 14.9481H77.1394L77.1229 8.68566C77.1223 8.45585 77.3164 8.26926 77.556 8.26926H80.1835C80.4227 8.26926 80.6165 8.45522 80.6165 8.6846V20.1787C80.6165 20.408 80.4226 20.594 80.1835 20.594H76.4751C76.3048 20.594 76.1506 20.4991 76.0812 20.3498C75.0484 18.1271 73.2477 13.9746 73.2477 13.9746H73.1859L73.2107 20.1771C73.2116 20.4071 73.0176 20.594 72.7777 20.594H70.1508ZM83.0384 20.1787C83.0384 20.408 83.2322 20.594 83.4713 20.594H86.8501C87.0893 20.594 87.2831 20.408 87.2831 20.1787V16.7001L87.6351 16.2966L90.2977 20.3981C90.3768 20.52 90.5158 20.594 90.6653 20.594H94.5663C94.9121 20.594 95.1185 20.2241 94.9265 19.9481L90.2788 13.2645L94.0398 8.95108C94.2755 8.68068 94.0752 8.26926 93.7077 8.26926H90.5134C90.3797 8.26926 90.2533 8.32862 90.1713 8.43007L87.2831 12.0022V8.6846C87.2831 8.45522 87.0893 8.26926 86.8501 8.26926H83.4713C83.2322 8.26926 83.0384 8.45522 83.0384 8.6846V20.1787ZM70.3983 27.0642C70.3983 27.6081 70.6274 28.0378 71.0856 28.3536C71.5438 28.6668 72.1374 28.8233 72.8664 28.8233C73.598 28.8233 74.1852 28.6802 74.6283 28.3936C75.0738 28.1071 75.2966 27.7089 75.2966 27.199C75.2966 26.689 75.1155 26.3018 74.7536 26.0371C74.3916 25.7724 73.8612 25.5685 73.1626 25.4253C72.5728 25.3062 72.1995 25.208 72.0424 25.1303C71.8856 25.0501 71.8071 24.9299 71.8071 24.7696C71.8071 24.6629 71.8856 24.573 72.0424 24.5001C72.1995 24.4273 72.4601 24.3909 72.8247 24.3909C73.1993 24.3909 73.4791 24.4517 73.6639 24.573C73.8512 24.6921 73.9448 24.8473 73.9448 25.0393V25.1047H75.1713V25.0393C75.1713 24.5415 74.9586 24.1275 74.5333 23.7973C74.1082 23.467 73.5398 23.302 72.8286 23.302C72.1147 23.302 71.5476 23.4463 71.1275 23.7353C70.7072 24.0243 70.4972 24.4225 70.4972 24.9299C70.4972 25.3622 70.6616 25.7045 70.9908 25.9571C71.3223 26.2071 71.8273 26.3976 72.5057 26.5289C73.2424 26.6746 73.6766 26.7898 73.8082 26.8749C73.9398 26.9575 74.0017 27.0813 73.9942 27.2463C73.9917 27.3823 73.898 27.4976 73.7132 27.5923C73.5309 27.6871 73.2487 27.7343 72.8664 27.7343C72.4843 27.7343 72.1868 27.6784 71.9741 27.5668C71.7615 27.4526 71.6553 27.2851 71.6553 27.0642V26.9986H70.3983V27.0642ZM56.1317 28.7141H57.3125L57.7422 27.6191L59.9921 27.6238L60.4185 28.7141H61.7703L59.5224 23.3784H58.3188L56.1317 28.7141ZM59.5846 26.5818L58.1506 26.5778L58.7213 25.123C58.739 25.0816 58.7617 25.0186 58.7896 24.9336C58.8201 24.8462 58.8377 24.7781 58.8428 24.7297H58.8808C58.8883 24.7781 58.906 24.8425 58.9339 24.9226C58.9617 25.0027 58.9871 25.0659 59.0098 25.1121L59.5846 26.5818ZM44.971 24.482H43.1636V23.4111H47.9782V24.482H46.1709V28.7141H44.971V24.482ZM51.1987 28.7141H49.9951V23.4111H52.2277C52.9619 23.4111 53.5327 23.5739 53.9403 23.8991C54.3477 24.2247 54.5516 24.6446 54.5516 25.1594C54.5516 25.6523 54.3477 26.0651 53.9403 26.3976C53.835 26.4835 53.7189 26.5583 53.592 26.6221L54.8249 28.7141H53.4315L52.4004 26.8936C52.344 26.8956 52.2865 26.8967 52.2277 26.8967H51.1987V28.7141ZM51.1987 24.4855V25.8223H52.2315C52.6391 25.8223 52.9265 25.7651 53.0935 25.6511C53.2631 25.5346 53.3478 25.3706 53.3478 25.1594C53.3478 24.9505 53.2631 24.7867 53.0935 24.6677C52.9265 24.5463 52.6391 24.4855 52.2315 24.4855H51.1987ZM64.6832 28.7105L63.6049 28.7141V23.4111H64.7669L66.8438 26.274C66.8919 26.3516 66.9386 26.4354 66.9843 26.5252C67.0324 26.615 67.0741 26.6939 67.1096 26.762L67.1589 26.751C67.1386 26.6782 67.1235 26.5785 67.1133 26.4524C67.1033 26.3262 67.0981 26.224 67.0981 26.1464V23.4111H68.1727V28.7141H67.0564L64.9225 25.7677C64.8668 25.6899 64.8187 25.6159 64.7782 25.5454C64.7376 25.475 64.7034 25.4059 64.6757 25.3379H64.6225C64.6402 25.4155 64.6541 25.5005 64.6642 25.5928C64.6769 25.6826 64.6832 25.7651 64.6832 25.8405V28.7105ZM78.6842 28.7141H77.4804V23.4111H81.6079V24.482H78.6842V25.6147H81.2509V26.6854H78.6842V28.7141ZM83.7613 28.7141H87.9723V27.6434H84.9651V26.5179H87.5698V25.4399H84.9651V24.482H87.9305V23.4111H83.7613V28.7141ZM91.3674 28.7141H90.1638V23.4111H92.3963C93.1305 23.4111 93.7012 23.5739 94.1089 23.8991C94.5164 24.2247 94.7202 24.6446 94.7202 25.1594C94.7202 25.6523 94.5164 26.0651 94.1089 26.3976C94.0037 26.4835 93.8877 26.5583 93.7607 26.6221L94.9937 28.7141H93.6001L92.5692 26.8936C92.5125 26.8956 92.4551 26.8967 92.3963 26.8967H91.3674V28.7141ZM91.3674 24.4855V25.8223H92.4003C92.8077 25.8223 93.095 25.7651 93.2621 25.6511C93.4319 25.5346 93.5166 25.3706 93.5166 25.1594C93.5166 24.9505 93.4319 24.7867 93.2621 24.6677C93.095 24.5463 92.8077 24.4855 92.4003 24.4855H91.3674Z" fill="#2A73BB"/>
</svg>
