<svg width="1280" height="561" viewBox="0 0 1280 561" fill="none" xmlns="http://www.w3.org/2000/svg"><g clip-path="url(#a)"><path fill="#DBCFFF" d="M0 0h1280v561H0z"/><path fill-rule="evenodd" clip-rule="evenodd" d="M-.5 64C50 72 182.8 80.7 310 51.5c159-36.5 486-18 806 124 98 39.6 151.17 49.5 165.5 49.5v-35.5c-31.17-4.833-101.5-29-173.5-60-7.83-3.373-16.88-7.339-27-11.772C981.949 74.32 780.877-13.797 623-26.5c-77.595-6.243-128.939 7.301-185.871 22.32C366.397 14.477 287.04 35.411 138 23.5c-57.6-8-116.333-36.667-138.5-50V64Zm-.35 125.166c46.04 6.655 175.955 25.433 378.35-7.666 6.114-1 12.14-1.99 18.085-2.967l.007-.001.086-.015.013-.002C571.052 149.696 677.283 132.237 949.5 212.5c202.76 59.785 319.83 77.333 344 74V336c-66.05-3.677-118.94-3.074-164.16-2.558-114.66 1.308-180.062 2.055-285.84-68.942-133.074-89.317-276-79.5-466-59.5S90.5 231-2 225v-36l1.15.166ZM228 277c-92.183 15.364-200 12.5-237.5 9l-5 48.5c6.159.324 14.012.856 23.284 1.483C56.714 339.228 142.532 345.039 228 338c127.5-10.5 435.524 48.8 571.5 128 142.5 83 366 42 482 16.5v-44c-125.5 57.5-343 84.5-482 5.5C570.5 288 390 250 228 277Zm914-253.5c21.3 5.606 44.77 13.24 66.76 20.396 29.12 9.473 55.67 18.11 71.24 20.104l32.5-5.5v-73l-321 14c31.33 2.833 93.5 9 150.5 24ZM-3.5 441c36-19.333 137.2-59 240-57 59.009 1.148 97.035 22.435 142.841 48.076C523 519.5 746.5 558.5 881.5 565.5c0 0-47.639 12.841-48 19.967C749 575.467 682 625 369 450.5c-108.221-57.317-272.35-.89-344.024 23.751C7.24 480.349-4.834 484.5-9 484.5c0 0-3-27 5.5-43.5Z" fill="#C8B5FF" stroke="#B7A3EF"/><path d="M223.988 39.89a.5.5 0 0 0-.976 0l-3.515 15.698a5.5 5.5 0 0 1-3.889 4.095l-13.742 3.835a.501.501 0 0 0 .032.971l13.366 2.798a5.5 5.5 0 0 1 4.255 4.249l3.492 16.567a.5.5 0 0 0 .978 0l3.492-16.567a5.5 5.5 0 0 1 4.255-4.25l13.366-2.797a.5.5 0 0 0 .032-.97l-13.742-3.836a5.5 5.5 0 0 1-3.889-4.095l-3.515-15.697Z" fill="#E0D6FC" stroke="#B7A3EF" stroke-linejoin="round"/><path d="M1095.49 298.924a.488.488 0 0 0-.49-.424c-.25 0-.46.18-.49.424l-3.12 20.228a12.499 12.499 0 0 1-10.13 10.397l-16.35 2.959a.497.497 0 0 0-.41.503c.01.246.19.451.43.484l15.8 2.144c5.51.749 9.86 5.05 10.68 10.553l3.1 20.881a.49.49 0 0 0 .49.427.49.49 0 0 0 .49-.427l3.1-20.881a12.504 12.504 0 0 1 10.68-10.553l15.8-2.144a.505.505 0 0 0 .43-.484.497.497 0 0 0-.41-.503l-16.35-2.959a12.499 12.499 0 0 1-10.13-10.397l-3.12-20.228ZM309.495 252.929a.5.5 0 0 0-.99 0l-1.506 10.471a5.498 5.498 0 0 1-4.397 4.616l-7.697 1.493a.5.5 0 0 0 .023.986l7.425 1.08a5.5 5.5 0 0 1 4.657 4.689l1.495 10.805a.5.5 0 0 0 .99 0l1.495-10.805a5.5 5.5 0 0 1 4.657-4.689l7.425-1.08a.5.5 0 0 0 .023-.986l-7.697-1.493a5.498 5.498 0 0 1-4.397-4.616l-1.506-10.471ZM766.495 80.929a.5.5 0 0 0-.99 0l-2.562 17.818a5.502 5.502 0 0 1-4.397 4.617l-13.641 2.645a.5.5 0 0 0 .023.986l13.368 1.944a5.5 5.5 0 0 1 4.657 4.689l2.552 18.441a.5.5 0 0 0 .99 0l2.552-18.441a5.5 5.5 0 0 1 4.657-4.689l13.368-1.944a.5.5 0 0 0 .023-.986l-13.641-2.645a5.502 5.502 0 0 1-4.397-4.617l-2.562-17.818Z" fill="#E3DEF5" stroke="#B7A3EF" stroke-linejoin="round"/><path d="m227.451 346.116.001-.004-.001.004Zm.712-.072-.001-.002.001.002Zm-25.566-11.765c-.852-1.785-1.517-3.253-1.915-4.264 1.483 1.263 2.785 1.989 3.993 2.36 1.512.464 2.826.353 4.072.113.404-.078.798-.168 1.191-.257 2.028-.461 4.007-.912 6.879.379l.097.044h.001c3.324 1.532 5.733 4.525 7.402 7.383 1.388 2.376 2.233 4.601 2.672 5.756.094.246.169.444.226.584l.001.001a.95.95 0 0 0 .255.377.567.567 0 0 0 .416.13.564.564 0 0 0 .38-.206.934.934 0 0 0 .174-.401c.025-.122.041-.265.05-.419.035-.612-.031-1.6-.246-2.787-.431-2.377-1.479-5.655-3.64-8.456l-.005-.008-.006-.006c-2.404-2.897-4.684-4.292-6.942-4.912-2.15-.59-4.242-.462-6.275-.337l-.24.015c-2.13.129-4.217.227-6.43-.427-2.19-.647-4.547-2.046-7.165-4.982-.2-.335-.543-.442-.822-.457-.285-.015-.581.057-.819.134a5.04 5.04 0 0 0-.84.364l-.057.031-.017.009-.004.003-.002.001h-.001l.249.434-.249-.434-.05.029-.041.039c-.355.329-.412.832-.382 1.284.032.477.172 1.054.384 1.699.427 1.294 1.187 2.974 2.148 4.894 1.538 3.067 3.622 6.804 5.77 10.656.542.971 1.088 1.95 1.631 2.928 2.698 4.863 5.305 9.685 6.901 13.423.801 1.874 1.331 3.439 1.503 4.583.087.575.075.999-.005 1.288-.076.269-.201.398-.367.465l-.015.006-.016.008c-4.03 1.961-6.921 4.584-8.757 7.221-1.828 2.625-2.636 5.302-2.423 7.366.107 1.037.476 1.948 1.138 2.596.668.655 1.588.994 2.695.97 2.177-.049 5.129-1.498 8.745-4.81l.028-.026.025-.031c.317-.399.622-.779.914-1.143 1.741-2.176 3.019-3.772 3.809-5.144.934-1.623 1.221-2.989.83-4.676a.56.56 0 0 0-.01-.095 1.099 1.099 0 0 0-.048-.171 4.93 4.93 0 0 0-.159-.392c-.138-.313-.35-.757-.621-1.309a299.11 299.11 0 0 0-2.293-4.521c-.896-1.739-1.934-3.742-3.044-5.882l-.229-.441c-1.195-2.306-2.467-4.759-3.727-7.206-2.521-4.896-4.992-9.761-6.717-13.373Z" fill="#E3DEF5" stroke="#B7A3EF" stroke-miterlimit="10"/><path d="M70.707 159.306c-.572-1.392-3.3-9.951-9.685-12.843h-.002c-6.56-2.968-8.542 3.661-15.563-3.229-1.694-.425 17.663 35.497 17.307 35.768.696 2.887-.887 4.588-4.945 9.715-13.06 12.046-15.152-4.415-.765-11.463 4.898-1.996-18.483-35.349-15.846-37.816 0 0 1.428-.826 1.73-.209 9.751 11.058 16.068-.604 24.616 9.766 3.814 4.977 3.727 11.7 3.153 10.311ZM563.629 43.946c-.725-1.778-4.181-12.715-12.268-16.41h-.003c-8.308-3.793-10.819 4.678-19.712-4.127-2.147-.541 22.373 45.358 21.922 45.705.881 3.69-1.123 5.862-6.264 12.413-16.543 15.392-19.193-5.64-.968-14.647 6.203-2.55-23.413-45.168-20.072-48.321 0 0 1.808-1.054 2.191-.267 12.352 14.13 20.353-.771 31.18 12.48 4.831 6.359 4.721 14.95 3.994 13.174ZM970.366 236.575c-.498.055-.85.99-.85.99-.856 1.368 3.497 39.239-.676 38.14-3.34.385-10.448 1.41-13.281 5.68-3.999 10.566 14.699 3.714 16.998-.323a2.37 2.37 0 0 0 .507-1.511l-.69-39.519c-1.037-2.483 27.17-3.445 27.916-4.185.72-.078 1.35.479 1.38 1.212-.83 1.266 3.27 36.482-.65 35.459-3.287.364-10.378 1.488-13.426 5.696-5.129 11.058 15.686 3.368 17.236-.643.85-.792-1.76-42.688-1.49-43.668a.942.942 0 0 0-1.04-.897l-31.934 3.569Z" fill="#AA92EB"/><path d="m737.825 300.01-.001.007-.005.108c-.002.099-.003.237 0 .415.004.355.018.851.04 1.47.044 1.238.121 2.955.218 4.994.095 1.982.208 4.26.329 6.691.128 2.579.265 5.331.397 8.089.256 5.347.495 10.693.615 14.753.06 2.029.091 3.742.08 4.975a23.178 23.178 0 0 1-.051 1.489 4.614 4.614 0 0 1-.059.475c-.013.064-.03.134-.054.2a.792.792 0 0 1-.066.138c-.256.607-.821 1.212-1.521 1.779-.739.598-1.688 1.201-2.75 1.767-2.126 1.132-4.755 2.14-7.182 2.672-1.214.266-2.391.415-3.439.395-1.04-.019-1.998-.207-2.732-.658-.76-.468-1.246-1.199-1.343-2.195-.093-.966.181-2.15.84-3.57l.02-.044.028-.039c1.615-2.23 4.268-3.606 6.871-4.471 2.613-.869 5.247-1.245 6.903-1.429l.092-.01.09.023c.035.01.049.005.056.003a.267.267 0 0 0 .093-.073c.109-.119.24-.36.365-.77.246-.807.408-2.053.497-3.635.178-3.149.061-7.472-.155-11.888-.148-3.047-.343-6.125-.517-8.881-.078-1.237-.152-2.408-.216-3.483-.103-1.731-.18-3.215-.205-4.307a19.377 19.377 0 0 1 .006-1.348c.008-.172.022-.327.043-.456.009-.058.023-.135.049-.215a.755.755 0 0 0-.729-.641 1.348 1.348 0 0 1-.144.054 3.688 3.688 0 0 1-.353.085c-.265.052-.62.103-1.044.155-.85.103-2.016.211-3.383.328-.986.084-2.078.173-3.235.266-2.057.167-4.32.35-6.565.556-3.506.322-6.939.696-9.426 1.143-1.25.224-2.229.461-2.854.708-.297.117-.47.219-.556.293l.002.095.689 39.519v.001a2.859 2.859 0 0 1-.591 1.8c-.34.579-.936 1.165-1.666 1.723-.752.575-1.681 1.147-2.707 1.679-2.049 1.064-4.521 1.986-6.804 2.445-1.142.229-2.251.346-3.244.3-.989-.046-1.901-.254-2.615-.708-.733-.466-1.226-1.174-1.383-2.131-.152-.936.022-2.078.538-3.443l.02-.053.031-.046c1.509-2.275 4.124-3.645 6.711-4.496 2.599-.854 5.253-1.211 6.93-1.405l.093-.01.091.024c.043.011.063.006.076.002a.303.303 0 0 0 .113-.087c.122-.135.264-.401.397-.844.264-.873.438-2.218.533-3.919.191-3.389.066-8.04-.164-12.79a656.537 656.537 0 0 0-.564-9.732c-.08-1.264-.155-2.462-.221-3.566a149.114 149.114 0 0 1-.225-4.632 21.995 21.995 0 0 1 .002-1.446 4.6 4.6 0 0 1 .042-.485c.015-.099.041-.242.106-.369l.008-.02a3.476 3.476 0 0 1 .26-.508c.088-.141.205-.303.353-.44.145-.134.356-.278.628-.308h-.001l33.515-2.068Zm0 0 .014-.052-.003-.076a1.437 1.437 0 0 0-1.592-1.373l-31.933 3.569 33.514-2.068Z" fill="#E3DEF5" stroke="#B7A3EF" stroke-miterlimit="10"/></g><defs><clipPath id="a"><path fill="#fff" d="M0 0h1280v560H0z"/></clipPath></defs></svg>
