<svg width="472" height="320" viewBox="0 0 472 320" fill="none" xmlns="http://www.w3.org/2000/svg"><g clip-path="url(#a)" stroke="#594D95"><path d="M440.754 256.909c.452 8.128 3.35 61.521 3.171 74.37-.018 1.328 1.152 2.63 2.481 2.63h24.348a2 2 0 0 0 2-2v-41.952c0-1.123.924-2.025 2.047-2.007 20.732.328 47.162-2.135 53.453-35.041 6.5-34-2-44-8.5-45s-11.5 1.5-19 31c-5.557 21.857-18.977 26.53-26.357 26.174-.96-.046-1.655-.859-1.667-1.82-.126-10.799.024-37.57.024-71.354 0-44.5-10.403-57.74-27.254-53-15.567 4.378-12.908 47.093-8.148 71.506.214 1.099-.506 2.169-1.627 2.18-2.914.028-6.89-.892-8.471-4.686-8-28-9.5-39-24-38s-11.5 20.5-4 52.5 41 25.5 41.5 34.5Z" fill="#C4B2D3"/><path d="m402 179.409 1 10m1 7c3 12.5 5.3 38.6 28.5 45m23.5-97c1.333 1.833 4.1 6.3 4.5 9.5m1 9c1.333 6.5 3.8 25.1 3 47.5-1 28 2.5 92 2 103m53.5-99c1.333 1.5 4 6.5 4 14.5 0 10 5.5 42.5-33.5 53.5" stroke-linecap="round"/><path d="M-31.246 256.909c.452 8.128 3.35 61.521 3.171 74.37-.018 1.328 1.152 2.63 2.48 2.63h24.349a2 2 0 0 0 2-2v-41.952c0-1.123.924-2.025 2.047-2.007 20.732.328 47.162-2.135 53.453-35.041 6.5-34-2-44-8.5-45s-11.5 1.5-19 31c-5.557 21.857-18.977 26.53-26.357 26.174-.96-.046-1.655-.859-1.667-1.82-.126-10.799.024-37.57.024-71.354 0-44.5-10.403-57.74-27.254-53-15.567 4.378-12.908 47.093-8.148 71.506.215 1.099-.506 2.169-1.627 2.18-2.913.028-6.89-.892-8.471-4.686-8-28-9.5-39-24-38s-11.5 20.5-4 52.5 41 25.5 41.5 34.5Z" fill="#C4B2D3"/><path d="m-70 179.409 1 10m1 7c3 12.5 5.3 38.6 28.5 45m23.5-97c1.333 1.833 4.1 6.3 4.5 9.5m1 9c1.333 6.5 3.8 25.1 3 47.5-1 28 2.5 92 2 103m53.5-99c1.333 1.5 4 6.5 4 14.5 0 10 5.5 42.5-33.5 53.5M0 172c.5.5 65.395 34 210 34 113.748 0 201.734-24.296 223.312-33.695.47-.205.955-.209 1.442-.051 7.588 2.47 24.488 5.545 37.246-.254" stroke-linecap="round"/><circle cx="79" cy="206" r="10.5" fill="#F5D9A4"/><circle cx="138" cy="214" r="10.5" fill="#FCEDCD"/><circle cx="29" cy="194" r="10.5" fill="#FCEDCD"/><circle cx="325" cy="209" r="10.5" fill="#FCEDCD"/><circle cx="198" cy="217" r="10.5" fill="#F5D9A4"/><circle cx="379" cy="199" r="10.5" fill="#F5D9A4"/><circle cx="266" cy="215" r="10.5" fill="#FFAFAB"/><circle cx="431" cy="183" r="10.5" fill="#FFAFAB"/></g><defs><clipPath id="a"><path fill="#fff" d="M0 0h472v320H0z"/></clipPath></defs></svg>