<svg width="108" height="36" viewBox="0 0 108 36" fill="none" xmlns="http://www.w3.org/2000/svg">
<path d="M43.8093 13.4343C43.8093 14.2312 43.5655 15.0093 43.1062 15.6562L39.5718 20.625H43.6593V22.1906H37.0405C37.0405 21.3937 37.2843 20.6156 37.7437 19.9687L41.278 15H37.1905V13.4343H43.8093Z" fill="#072259"/>
<path d="M66.8712 20.5875C67.1431 21.7031 68.0899 22.3312 69.3743 22.3312C71.4837 22.3312 72.5243 20.9437 72.5243 19.0593V13.4343H70.4712V19.1812C70.4712 20.0906 70.1524 20.7 69.1962 20.7C68.2774 20.7 67.9024 20.0906 67.9024 19.1812V13.4343H65.8587V19.1812C65.8399 20.0906 65.4743 20.7 64.5649 20.7C63.6087 20.7 63.2899 20.0906 63.2899 19.1812V13.4343H61.2368V19.0593C61.2368 20.9437 62.2774 22.3312 64.3868 22.3312C65.6618 22.3312 66.6181 21.7031 66.8712 20.5875Z" fill="#072259"/>
<path d="M100.115 16.5187V19.3031C100.115 19.6593 100.171 19.9687 100.302 20.2031L100.312 20.2312C100.358 20.3062 100.405 20.3812 100.471 20.4375C100.508 20.475 100.546 20.5125 100.593 20.5406C100.604 20.5519 100.619 20.5598 100.635 20.5685L100.651 20.5771C100.657 20.5803 100.662 20.5837 100.668 20.5875L100.677 20.5968L100.705 20.6156C100.958 20.7656 101.258 20.8125 101.549 20.8125C101.699 20.8125 101.849 20.7937 101.999 20.7656V22.3125C101.849 22.3312 101.699 22.3312 101.549 22.3312C99.9272 22.3312 98.671 21.525 98.2585 20.2406L98.2491 20.2218C98.1835 19.9781 98.146 19.725 98.1272 19.4531C98.1272 19.4296 98.1249 19.4039 98.1226 19.3781C98.1202 19.3523 98.1179 19.3265 98.1179 19.3031V16.5187H96.8804V15H98.1179V13.4343H100.115V14.9906H101.999V16.5187H100.115Z" fill="#072259"/>
<path fill-rule="evenodd" clip-rule="evenodd" d="M50.6054 15.8249C50.6522 15.8624 50.6897 15.8999 50.7272 15.9374C51.271 16.4718 51.5897 17.1936 51.5991 18.0468V19.2843H46.7241V19.3218C46.7241 19.4718 46.7335 19.6218 46.7616 19.7436C46.771 19.7905 46.7804 19.8374 46.7897 19.8749C46.7965 19.9154 46.813 19.9607 46.8287 20.0039C46.8348 20.0208 46.8407 20.0372 46.846 20.053C46.9397 20.278 47.0804 20.4655 47.2866 20.578L47.3147 20.5968C47.5585 20.7468 47.8679 20.7936 48.1585 20.7936C48.3272 20.7936 48.5054 20.7843 48.6647 20.7374C48.9272 20.6718 49.171 20.5218 49.3397 20.278H51.4304C51.3741 20.4374 51.3085 20.5874 51.2241 20.7374V20.7468C50.671 21.7311 49.546 22.3218 48.1585 22.3218C46.471 22.3218 45.1772 21.4593 44.8116 20.0811V20.0624C44.7554 19.8374 44.7272 19.5936 44.7179 19.3405C44.7179 19.3264 44.7155 19.3147 44.7132 19.303C44.7108 19.2913 44.7085 19.2796 44.7085 19.2655V18.0468C44.7085 17.1749 45.0272 16.4436 45.571 15.9186C45.7585 15.7311 45.9835 15.5717 46.2272 15.4405C46.2694 15.4218 46.3116 15.4007 46.3538 15.3796C46.396 15.3585 46.4382 15.3374 46.4804 15.3186C46.5014 15.3102 46.5219 15.3018 46.5422 15.2935C46.6124 15.2648 46.6796 15.2373 46.7522 15.2155C46.996 15.1218 47.2585 15.0655 47.5397 15.028C47.6072 15.028 47.667 15.0204 47.7329 15.0121L47.7554 15.0092C47.8772 14.9999 48.0085 14.9905 48.1397 14.9905C48.6366 14.9905 49.096 15.0655 49.5085 15.2061C49.5272 15.2108 49.546 15.2178 49.5647 15.2249C49.5835 15.2319 49.6022 15.2389 49.621 15.2436C49.7429 15.2905 49.8554 15.3374 49.9679 15.3936C50.2022 15.5155 50.4179 15.6561 50.6054 15.8249ZM48.1397 16.5186C47.4554 16.5186 46.7147 16.8093 46.7147 17.9999H49.5835C49.5835 16.8093 48.8429 16.5186 48.1397 16.5186Z" fill="#072259"/>
<path fill-rule="evenodd" clip-rule="evenodd" d="M80.362 17.9438C80.362 17.8393 80.3539 17.743 80.3453 17.6397L80.3433 17.6156L80.3151 17.3906C80.3058 17.3531 80.2964 17.3156 80.2964 17.2781C80.2964 17.258 80.291 17.2379 80.286 17.2193C80.2817 17.2031 80.2776 17.1881 80.2776 17.175V17.1562C79.9214 15.8062 78.6558 14.9531 76.9964 14.9531C76.1151 14.9531 75.3464 15.1875 74.7651 15.6187C74.5776 15.7594 74.4089 15.9187 74.2589 16.0969L75.7683 17.0625C75.937 16.7531 76.1995 16.5844 76.4995 16.5094C76.5183 16.5047 76.5394 16.5 76.5604 16.4953C76.5815 16.4906 76.6026 16.4859 76.6214 16.4813C76.7433 16.4625 76.8651 16.4531 76.9964 16.4531C77.137 16.4531 77.287 16.4625 77.4276 16.5C77.4422 16.5037 77.4554 16.5073 77.4683 16.511L77.479 16.514C77.4953 16.5187 77.5121 16.5235 77.5308 16.5281C77.6339 16.5563 77.7276 16.6031 77.8214 16.6594L77.8495 16.6781L77.8589 16.6875C77.8683 16.6922 77.8776 16.6992 77.887 16.7063C77.8964 16.7133 77.9058 16.7203 77.9151 16.725C78.0464 16.8094 78.1401 16.9219 78.2058 17.0531C78.2245 17.0813 78.2339 17.1 78.2433 17.1281C78.2479 17.1422 78.2526 17.1539 78.2573 17.1656C78.262 17.1773 78.2667 17.1892 78.2714 17.2031C78.2769 17.2198 78.2833 17.2364 78.2898 17.2533C78.3051 17.2935 78.321 17.335 78.3276 17.3813C78.3306 17.3929 78.3335 17.4055 78.3364 17.4184L78.3415 17.4413C78.3462 17.4624 78.3511 17.4844 78.3558 17.5031C78.3604 17.5172 78.3628 17.5336 78.3651 17.55C78.3675 17.5664 78.3698 17.5829 78.3745 17.5969V17.6063L78.3773 17.6259C78.3857 17.6834 78.3933 17.7357 78.3933 17.8031V17.9531H76.5464C75.1214 17.9531 73.9214 18.5719 73.9214 20.1C73.9214 21.5437 75.1776 22.3312 76.462 22.3312C77.1651 22.3312 77.9151 22.125 78.3933 21.6094V22.2H80.362V18.0656C80.3714 18.0187 80.3714 17.9812 80.362 17.9438ZM78.3933 19.9219C78.3839 20.0156 78.3558 20.1 78.3089 20.175C78.1214 20.4844 77.6339 20.8219 76.8745 20.8219C76.3495 20.8219 75.8901 20.5219 75.8901 19.9688C75.8901 19.4156 76.312 19.0687 77.0526 19.0687H78.3933V19.5187C78.4026 19.65 78.412 19.7812 78.3933 19.9219Z" fill="#072259"/>
<path fill-rule="evenodd" clip-rule="evenodd" d="M35.184 15.8249C35.2309 15.8624 35.2684 15.8999 35.3059 15.9374C35.8496 16.4718 36.1684 17.1936 36.1684 18.0468V19.2843H31.2934V19.3218C31.2934 19.4718 31.3027 19.6218 31.3309 19.7436C31.3402 19.7904 31.3496 19.8375 31.359 19.8749C31.3684 19.903 31.3801 19.9335 31.3918 19.9639C31.4035 19.9944 31.4152 20.0249 31.4246 20.053C31.5184 20.278 31.659 20.4655 31.8652 20.578L31.8934 20.5968C32.1371 20.7468 32.4465 20.7936 32.7371 20.7936C32.9059 20.7936 33.084 20.7843 33.2434 20.7374C33.5059 20.6718 33.7496 20.5218 33.9184 20.278H36.009C35.9715 20.3905 35.9246 20.503 35.8684 20.6155C35.859 20.6342 35.8473 20.6553 35.8356 20.6764C35.8239 20.6975 35.8121 20.7187 35.8027 20.7374V20.7468C35.2496 21.7311 34.1246 22.3218 32.7371 22.3218C31.0496 22.3218 29.7559 21.4593 29.3902 20.0811V20.0624C29.334 19.8374 29.3059 19.5936 29.2965 19.3405C29.2965 19.3264 29.2941 19.3147 29.2918 19.303C29.2895 19.2913 29.2871 19.2796 29.2871 19.2655V18.0468C29.2871 17.1749 29.6059 16.4436 30.1496 15.9186C30.3371 15.7311 30.5621 15.5717 30.8059 15.4405C30.848 15.4218 30.8902 15.4007 30.9324 15.3796C30.9746 15.3585 31.0168 15.3374 31.059 15.3186C31.0801 15.3102 31.1007 15.3018 31.121 15.2934C31.1912 15.2647 31.2582 15.2373 31.3309 15.2155C31.5746 15.1218 31.8371 15.0655 32.1184 15.028C32.1858 15.028 32.2456 15.0204 32.3115 15.0121L32.334 15.0092C32.4559 14.9999 32.5871 14.9905 32.7184 14.9905C33.2152 14.9905 33.6746 15.0655 34.0871 15.2061C34.1059 15.2108 34.1246 15.2178 34.1434 15.2249C34.1621 15.2319 34.1809 15.2389 34.1996 15.2436C34.3215 15.2905 34.434 15.3374 34.5465 15.3936C34.7809 15.5155 34.9965 15.6561 35.184 15.8249ZM32.7184 16.5186C32.034 16.5186 31.2934 16.8093 31.2934 17.9999H34.1621C34.1621 16.8093 33.4215 16.5186 32.7184 16.5186Z" fill="#072259"/>
<path fill-rule="evenodd" clip-rule="evenodd" d="M58.8649 15.9374C58.8274 15.8999 58.7899 15.8624 58.7431 15.8249C58.5556 15.6561 58.3399 15.5155 58.1056 15.3936C57.9931 15.3374 57.8806 15.2905 57.7587 15.2436C57.7399 15.2389 57.7212 15.2319 57.7024 15.2249C57.6837 15.2178 57.6649 15.2108 57.6462 15.2061C57.2337 15.0655 56.7743 14.9905 56.2774 14.9905C56.1462 14.9905 56.0149 14.9999 55.8931 15.0092L55.8706 15.0121C55.8047 15.0204 55.7449 15.028 55.6774 15.028C55.3962 15.0655 55.1337 15.1218 54.8899 15.2155C54.8173 15.2373 54.7503 15.2647 54.6801 15.2934C54.6598 15.3017 54.6392 15.3102 54.6181 15.3186C54.5759 15.3374 54.5337 15.3585 54.4915 15.3795C54.4494 15.4006 54.4071 15.4218 54.3649 15.4405C54.1212 15.5717 53.9056 15.7311 53.7087 15.9186C53.1649 16.4436 52.8462 17.1749 52.8462 18.0468V19.2655C52.8462 19.2796 52.8485 19.2913 52.8509 19.303C52.8532 19.3147 52.8556 19.3264 52.8556 19.3405C52.8649 19.5936 52.8931 19.8374 52.9493 20.0624V20.0811C53.3149 21.4593 54.6087 22.3218 56.2962 22.3218C57.6837 22.3218 58.8087 21.7311 59.3618 20.7468V20.7374C59.4462 20.5874 59.5118 20.4374 59.5681 20.278H57.4681C57.2993 20.5218 57.0556 20.6718 56.7931 20.7374C56.6337 20.7843 56.4556 20.7936 56.2868 20.7936C55.9962 20.7936 55.6868 20.7468 55.4431 20.5968L55.4149 20.578C55.2087 20.4655 55.0681 20.278 54.9743 20.053C54.9649 20.0249 54.9532 19.9944 54.9415 19.964C54.9298 19.9336 54.918 19.9029 54.9087 19.8749C54.8993 19.8374 54.8899 19.7905 54.8806 19.7436C54.8524 19.6218 54.8431 19.4718 54.8431 19.3218V19.2843H59.7181V18.0468C59.7274 17.1936 59.4087 16.4718 58.8649 15.9374ZM54.8524 17.9999C54.8524 16.8093 55.5931 16.5186 56.2774 16.5186C56.9806 16.5186 57.7212 16.8093 57.7212 17.9999H54.8524Z" fill="#072259"/>
<path fill-rule="evenodd" clip-rule="evenodd" d="M94.9774 15.8249C95.0243 15.8624 95.0618 15.8999 95.0993 15.9374C95.6431 16.4718 95.9618 17.1936 95.9712 18.0468V19.2843H91.0962V19.3218C91.0962 19.4718 91.1056 19.6218 91.1337 19.7436C91.1431 19.7905 91.1524 19.8374 91.1618 19.8749C91.1686 19.9154 91.185 19.9607 91.2007 20.0039C91.2067 20.0205 91.2129 20.0374 91.2181 20.053C91.3118 20.278 91.4524 20.4655 91.6587 20.578L91.6868 20.5968C91.9306 20.7468 92.2399 20.7936 92.5306 20.7936C92.6993 20.7936 92.8774 20.7843 93.0368 20.7374C93.2993 20.6718 93.5431 20.5218 93.7118 20.278H95.8024C95.7462 20.4374 95.6806 20.5874 95.5962 20.7374V20.7468C95.0431 21.7311 93.9181 22.3218 92.5306 22.3218C90.8431 22.3218 89.5493 21.4593 89.1837 20.0811V20.0624C89.1274 19.8374 89.0993 19.5936 89.0899 19.3405C89.0899 19.332 89.0891 19.3244 89.0879 19.3171C89.0871 19.3123 89.0862 19.3077 89.0853 19.303C89.084 19.2969 89.0828 19.2907 89.0819 19.2842C89.0814 19.2807 89.081 19.2771 89.0808 19.2734C89.0807 19.2708 89.0806 19.2682 89.0806 19.2655V18.0468C89.0806 17.1749 89.3993 16.4436 89.9431 15.9186C90.1306 15.7311 90.3556 15.5717 90.5993 15.4405C90.6415 15.4218 90.6837 15.4007 90.7259 15.3796C90.7681 15.3585 90.8103 15.3374 90.8524 15.3186C90.8735 15.3102 90.8942 15.3017 90.9145 15.2934C90.9846 15.2647 91.0517 15.2373 91.1243 15.2155C91.3681 15.1218 91.6306 15.0655 91.9118 15.028C91.9792 15.028 92.0391 15.0204 92.105 15.0121L92.1274 15.0092C92.2493 14.9999 92.3806 14.9905 92.5118 14.9905C93.0087 14.9905 93.4681 15.0655 93.8806 15.2061C93.8993 15.2108 93.9181 15.2178 93.9368 15.2249C93.9556 15.2319 93.9743 15.2389 93.9931 15.2436C94.1149 15.2905 94.2274 15.3374 94.3399 15.3936C94.5743 15.5155 94.7899 15.6561 94.9774 15.8249ZM92.5118 16.5186C91.8274 16.5186 91.0868 16.8093 91.0868 17.9999H93.9556C93.9556 16.8093 93.2149 16.5186 92.5118 16.5186Z" fill="#072259"/>
<path d="M82.8556 22.1906H83.9993V13.4343H82.0024V21.3468C82.0024 21.8156 82.3774 22.1906 82.8556 22.1906Z" fill="#072259"/>
<path d="M87.4681 22.1906H86.3243C85.8556 22.1906 85.4712 21.8156 85.4712 21.3468V13.4343H87.4681V22.1906Z" fill="#072259"/>
<path d="M9.49679 14.7188C9.49679 14.3907 9.57179 14.0626 9.73116 13.7719C10.228 12.8344 11.2687 12.5626 12.2624 12.5626H23.6999V9.22505H11.5968C10.228 9.21568 8.79366 9.53443 7.69679 10.3876C7.05929 10.8751 6.58116 11.5313 6.29991 12.2813C5.66241 13.9876 6.04679 15.6751 7.36866 16.9219C7.41242 16.9657 7.45721 17.0084 7.502 17.0511C7.59158 17.1365 7.68117 17.2219 7.76241 17.3157C7.89366 17.4657 8.01554 17.6344 8.07179 17.8313C8.09054 17.8876 8.09991 17.9251 8.09991 18.0001C8.09991 18.0751 8.09054 18.1126 8.07179 18.1688C8.01554 18.3657 7.89366 18.5344 7.76241 18.6844C7.68116 18.7782 7.59158 18.8636 7.502 18.949C7.4572 18.9917 7.41241 19.0344 7.36866 19.0782C6.04679 20.3251 5.66241 22.0032 6.29991 23.7188C6.57179 24.4782 7.05929 25.1251 7.68741 25.6126C8.78429 26.4751 10.2187 26.7844 11.5874 26.7751H23.6905V23.4376H12.253C11.2687 23.4376 10.228 23.1657 9.73116 22.2282C9.57179 21.9376 9.49679 21.6094 9.49679 21.2813C9.49679 20.4376 10.0218 19.8001 10.7062 19.3688C11.2218 19.0313 11.7187 18.6376 11.7187 18.0001C11.7187 17.3626 11.2218 16.9688 10.7062 16.6313C10.0124 16.2001 9.48741 15.5626 9.49679 14.7188Z" fill="#03C5D3"/>
<path d="M22.5844 14.5405H13.6781C13.0594 14.5405 12.5625 15.0374 12.5625 15.6562C12.5625 16.2749 13.0594 16.7718 13.6781 16.7718H22.5844V14.5405Z" fill="#03C5D3"/>
<path d="M12.5718 20.1095C12.5718 20.7283 13.0687 21.2252 13.6874 21.2252H22.5937V19.0033H13.6874C13.0687 18.9939 12.5718 19.4908 12.5718 20.1095Z" fill="#03C5D3"/>
</svg>
