<svg width="34" height="33" viewBox="0 0 34 33" fill="none" xmlns="http://www.w3.org/2000/svg"><path d="M14.226 4.071a3.864 3.864 0 0 1 5.758 0 4.864 4.864 0 0 0 3.892 1.612 3.864 3.864 0 0 1 4.072 4.072 4.864 4.864 0 0 0 1.612 3.893 3.864 3.864 0 0 1 0 5.758 4.864 4.864 0 0 0-1.612 3.892 3.864 3.864 0 0 1-4.072 4.072 4.864 4.864 0 0 0-3.892 1.612 3.864 3.864 0 0 1-5.758 0 4.864 4.864 0 0 0-3.893-1.612 3.864 3.864 0 0 1-4.071-4.072 4.864 4.864 0 0 0-1.613-3.892 3.864 3.864 0 0 1 0-5.758 4.864 4.864 0 0 0 1.613-3.893 3.864 3.864 0 0 1 4.071-4.072 4.864 4.864 0 0 0 3.893-1.612Z" fill="#ADE5FF" stroke="#2F2F2F"/><path d="M23.642 16.527a6.537 6.537 0 1 1-13.075 0 6.537 6.537 0 0 1 13.075 0Z" fill="#FFF500" stroke="#2F2F2F"/></svg>