<svg width="368" height="260" viewBox="0 0 368 260" fill="none" xmlns="http://www.w3.org/2000/svg">
<g clip-path="url(#clip0_175_54592)">
<mask id="mask0_175_54592" style="mask-type:luminance" maskUnits="userSpaceOnUse" x="-6" y="0" width="380" height="265">
<path d="M4 0H364L374 265H-6L4 0Z" fill="white"/>
</mask>
<g mask="url(#mask0_175_54592)">
<path d="M26.736 1H341.264C341.763 1.00013 342.243 1.18641 342.611 1.52234C342.98 1.85827 343.209 2.31962 343.255 2.816L366.702 260.816C366.728 261.093 366.695 261.372 366.607 261.636C366.518 261.9 366.376 262.142 366.189 262.347C366.001 262.553 365.773 262.717 365.519 262.829C365.264 262.942 364.989 263 364.711 263H3.28903C3.01092 263 2.73588 262.942 2.48148 262.829C2.22707 262.717 1.9989 262.553 1.81154 262.347C1.62418 262.142 1.48174 261.9 1.39332 261.636C1.3049 261.372 1.27245 261.093 1.29803 260.816L24.745 2.816C24.7909 2.31962 25.0205 1.85827 25.3888 1.52234C25.7571 1.18641 26.2375 1.00013 26.736 1Z" fill="#8F3DE0" stroke="#2F2F2F" stroke-width="2"/>
<path d="M8.5498 262.5L31.4538 8.5H336.546L359.45 262.5H8.5498Z" fill="#FFF4DE" stroke="black"/>
<path d="M323.905 23.999C323.792 23.972 323.679 23.9463 323.566 23.922C323.398 23.2192 323.192 22.5259 322.95 21.845C322.293 19.9821 321.389 18.2155 320.264 16.592C317.58 12.758 312.901 8.938 304.998 9H63.002C55.099 8.938 50.42 12.758 47.736 16.592C46.2633 18.7162 45.1738 21.082 44.517 23.582C44.483 23.714 44.457 23.827 44.434 23.922C43.7313 24.0773 43.0376 24.2709 42.356 24.502C40.4907 25.1284 38.7207 26.009 37.096 27.119C33.26 29.767 29.446 34.441 29.501 42.476L9.04805 263H4.99805V261.525L28.454 5H339.547L362.5 261.524V263H358.452L338.499 42.476C338.554 34.441 334.74 29.766 330.903 27.119C328.777 25.6663 326.407 24.6093 323.905 23.999Z" fill="#CCA3F5" stroke="#2F2F2F"/>
<path d="M363 264L339.5 5H28.5L5 263.5" stroke="#EDDCFF" stroke-width="2"/>
</g>
</g>
<defs>
<clipPath id="clip0_175_54592">
<rect width="368" height="260" fill="white"/>
</clipPath>
</defs>
</svg>
