<svg width="150" height="150" viewBox="0 0 150 150" fill="none" xmlns="http://www.w3.org/2000/svg"><g clip-path="url(#a)"><rect x=".5" y=".5" width="149" height="149" rx="3.5" fill="#8F3DE0" stroke="#2F2F2F"/><path fill="#FFF4DE" d="M7 7h136v136H7z"/><path d="M8.5 106v1.998c-.062 8.05 3.756 12.732 7.597 15.382a21.406 21.406 0 0 0 6.998 3.12c.13.031.244.057.34.077a20.35 20.35 0 0 0 .616 2.077 22.138 22.138 0 0 0 2.685 5.253c2.684 3.834 7.363 7.654 15.266 7.592H44l62 .001 1.996-.001h.002c7.903.062 12.582-3.758 15.266-7.592a22.122 22.122 0 0 0 3.219-6.991c.034-.13.061-.244.083-.339a19.375 19.375 0 0 0 2.078-.58 21.393 21.393 0 0 0 5.259-2.617c3.841-2.65 7.659-7.332 7.596-15.382V106l.001-62-.001-1.996v-.002c.063-8.05-3.755-12.732-7.596-15.382a21.393 21.393 0 0 0-6.998-3.12c-.13-.032-.244-.057-.339-.077a20.386 20.386 0 0 0-.616-2.077 22.124 22.124 0 0 0-2.686-5.253c-2.684-3.834-7.363-7.654-15.266-7.592H106L44 8.5h-1.998c-7.903-.061-12.582 3.759-15.266 7.593a22.14 22.14 0 0 0-3.22 6.99c-.033.131-.06.245-.082.34a19.762 19.762 0 0 0-2.079.58 21.407 21.407 0 0 0-5.258 2.617c-3.841 2.65-7.66 7.332-7.596 15.382V44L8.5 106Zm137-101.5v141H4.5V4.5h141Z" fill="#CCA3F5" stroke="#2F2F2F"/><path stroke="#EDDCFF" stroke-width="1.4" d="M4.7 4.7h140.6v140.6H4.7z"/></g><defs><clipPath id="a"><path fill="#fff" d="M0 0h150v150H0z"/></clipPath></defs></svg>