<svg width="594" height="560" viewBox="0 0 594 560" fill="none" xmlns="http://www.w3.org/2000/svg"><path d="M247.213 73.181c-.562-5.63-.565-5.212-6.333-5.212-51.954 4.65-77.537 23.365-82.603 27.024-5.065 3.658-5.4 5.488-5.259 7.74.141 2.251 5.259 34.864 5.259 34.864 3.096 25.155 18.716 45.066 25.612 47.942 6.895 2.877 59.666-13.713 63.044-15.261 4.201-19.051 2.499-75.49.283-97.1l-.003.003Z" fill="#B9A4F4" stroke="#7F69BB" stroke-miterlimit="10"/><path d="m236.588 101.596 5.746-.668s3.759-8.542-2.698-4.667c-.648.318-.938.469-1.598.212-6.909-2.68-2.562 5.408-1.45 5.123Z" fill="#AA92EB" stroke="#7F69BB" stroke-miterlimit="10"/><path d="M368.909 198.678c2.955.421 16.184-30.677 19.56-38.558 3.378-7.882 3.941-8.585 1.127-14.896-10.837-25.591-56.008-50.541-66.844-54.62-10.837-4.083-9.569-2.111-11.399.844-1.83 2.955-9.513 17.591-9.513 17.591s-7.233 59.104 1.352 68.813c8.585 9.709 62.762 20.405 65.717 20.826Z" fill="#B9A4F4" stroke="#7F69BB" stroke-miterlimit="10"/><path d="M373.581 176.612c.141-.704 0-8.724 0-8.724s-6.755 2.673-6.755 3.237c0 .565-.141 8.162 0 7.882.142-.283 6.614-1.689 6.755-2.393v-.002Z" fill="#AA92EB" stroke="#7F69BB" stroke-miterlimit="10"/><path d="M227.512 174.36c.204 12.178 97.521 8.865 99.914 7.039 2.392-1.825 9.709-44.611 10.554-55.574.751-9.742 3.613-11.071-8.9-16.383-34.89-12.775-90.736-8.973-96.359-7.975-6.447.608-8.514 2.469-9.006 5.91-1.669 21.212 2.721 53.759 3.797 66.983Z" fill="#B9A4F4" stroke="#7F69BB" stroke-miterlimit="10"/><path d="M289.217 169.365c-17.264-37.6-8.659-34.418-35.041-4.432 10.133 7.781 35.25 5.277 35.041 4.432ZM321.3 141.682c-17.401 10.975-4.147 10.771-4.102 11.381-.075.506-.201 1.976-.92 2.075-.429-.018-1.341.073-1.331.975.012 1.022 5.511 2.335 5.854 1.324.305-.895-.451-1.324-.837-1.477a.357.357 0 0 1-.224-.358c.03-.492.118-1.495.345-1.886.305-.53 12.186 5.373 1.215-12.034Z" fill="#AA92EB" stroke="#7F69BB" stroke-miterlimit="10"/><path d="m101.799 259.688 165.333-36.299 150.177 68.354c97.914-43.555-79.238-132.511-166.437-126.666-100.362 4.926-166.243 39.415-171.84 68.258-3.815 19.654 3.11 27.429 22.767 26.353Z" fill="#B9A4F4" stroke="#7F69BB" stroke-miterlimit="10"/><path d="M100.038 259.723c191.294-35.936 136.56-25.162 315.409 35.409 1.949.396 25.407-22.54 15.249-31.13-139.523-128.054-426.928-26.897-330.656-4.276l-.002-.003Z" fill="#AA92EB" stroke="#7F69BB" stroke-miterlimit="10"/><path d="M411.012 324.933c75.263-58.35-84.974-106.534-169.521-107.189-74.241 1.225-140.511 19.842-140.511 42.624 0 9.16.505 37.096 1.755 39l149.311.05 158.966 25.513v.002Z" fill="#B9A4F4" stroke="#7F69BB" stroke-miterlimit="10"/><path d="M111.685 221.901c-16.333 7.015-24.184 14.909-24.184 14.909v-19.096c11.691-11.245 24.184-18.688 24.184-18.688v22.875Zm94.004-32.345V179.33s-35.119 2.307-38.122 3.759c-.076 3.431.244 19.212.305 22.956 0 0 28.634-4.153 37.817-4.253v-12.239.003Zm105.409-18.247s-33.868-6.099-45.781-6.003l-1.455 36.776s26.809 1.885 44.702 5.488l2.534-36.258v-.003Zm100.345 44.168s-18.794-13.353-34.333-20.364c0 0-1.185 30.795-2.218 32.577 0 0 21.859 10.32 32.741 18.857 0 0 3.958-20.491 3.81-31.072v.002Zm-281.184 19.926s-13.11 4.909-20.13 10.559l1.556 49.979s15.362-4.83 18.574-5.63V235.4v.003Zm80.001-16.104s-21.144 1.995-31.408 3.81l.691 54.661s26.461-3.897 30.717-4.303v-54.168Zm93.66 3.888s-24.368-4.515-34.912-4.369l-.809 53.065 35.121 2.698.598-51.394h.002Zm84.574 29.015s-19.666-9.301-32.131-13.544v46.591l32.131 8.443v-41.49Z" fill="#AA92EB" stroke="#7F69BB" stroke-miterlimit="10"/><path d="M196.762 275.118c-95.927 13.771-131.918 41.823-135.92 49.816-2.722 5.438-1.804 30.154-.536 43.449.36 3.787 1.288 7.614 4.81 9.046 3.036-.492 159.234 5.834 167.658 6.074l179.505-8.613c16.086-6.492 13.597-40.87 13.721-49.089.517-34.582-130.192-64.9-229.238-50.683Z" fill="#B9A4F4" stroke="#7F69BB" stroke-miterlimit="10"/><path d="m375.74 287.223 1.023 40.862c-17.384-4.185-60.447-9.485-60.447-9.485v-42.342c18.889 2.122 59.421 10.967 59.421 10.967l.003-.002Zm-306.276 70.79-1.35-40.654s-6.022 5.005-7.086 7.237c-3.27 7.079-1.775 38.59-.395 46.164.342 0-1.082-3.635 8.834-12.745l-.002-.002Z" fill="#AA92EB" stroke="#7F69BB" stroke-miterlimit="10"/><path d="m242.251 362.483 123.351 24.605c31.435-9.636 62.311-18.017 60.43-29.86-13.945-57.543-343.29-52.051-364.39 10.55-7.217 15.725 35.832 21.173 85.852 22.678l94.757-27.973Z" fill="#AA92EB" stroke="#7F69BB" stroke-miterlimit="10"/><path d="M358.667 487.045c41.795-6.334 30.817-113.985 30.817-113.985-2.95-.451-200.794-46.679-251.686 2.841l-1.069 109.454s59.403 9.712 221.938 1.692v-.002Z" fill="#AA92EB" stroke="#7F69BB" stroke-miterlimit="10"/><path d="M147.37 486.631c64.943 4.919 132.574 3.197 132.574 3.197s14.008-13.971 15.334-22.203c1.326-8.232.837-110.217.837-110.217s-109.063-18.403-153.672 14.457c0 0-1.097 107.371-.091 109.481 1.006 2.11 1.357 5.007 5.015 5.285h.003Z" fill="#B9A4F4" stroke="#7F69BB" stroke-miterlimit="10"/><path d="M160.469 487.748c5.9 1.619 96.736 2.357 96.736 2.357s26.315-16.358 26.739-25.223c.423-8.864.058-109.176.058-109.176s-88.407-14.046-133.464 10.952c0 0-2.744 107.513-1.266 110.468 1.477 2.955 5.297 9.006 11.197 10.622ZM388.404 439.095c2.328-30.372 2.557-62.657 1.08-66.035-1.478-3.379-79.212-13.94-79.212-13.94v129.914s51.556-.575 55.991-3.258c4.434-2.68 19.814-16.312 22.139-46.684l.002.003Z" fill="#AA92EB" stroke="#7F69BB" stroke-miterlimit="10"/><path d="m180.949 438.28-31.39-30.812-.406 32.295 25.027 8.865c-3.379 7.599-2.534 15.619-2.534 15.619l-22.374-1.689s-.265 12.256 0 14.565c.265 2.31 5.297 7.188 5.297 7.188l19.189-8.665c3.588 10.133 10.552 13.161 10.552 13.161 36.939 2.178 72.895 1.296 72.895 1.296l12.67-9.223-23.64-8.237c.421-10.343-.923-14.52-.923-14.52l38.816-8.02-.046-50.661-44.468 39.053c-1.056-2.111-10.975-11.187-10.975-11.187l40.532-72.888c-17.646-1.823-31.175-2.128-31.175-2.128l-20.546 71.783c-8.784-.907-19.843 0-19.843 0l-16.865-67.938c-17.893 3.621-27.603 9.321-27.603 9.321l33.564 66.789c-2.743 1.689-5.754 6.031-5.754 6.033Z" fill="#B9A4F4" stroke="#7F69BB" stroke-miterlimit="10"/><path d="M208.595 357.375v132.221" stroke="#7F69BB" stroke-miterlimit="10"/><path d="M93.745 304.367c.617.089.996-.658.554-1.101-3.386-5.318-21.995-11.023-33.248 6.84-2.168 3.736-1.813 5.539-1.813 5.539l28.214-12.173 6.293.895Z" fill="#B9A4F4" stroke="#7F69BB" stroke-miterlimit="10"/><path d="m87.002 311.916 7.438-7.829c.784-.506-6.934-2.881-6.936-3.076l-6.647 7.97c.442.043 5.81 3.759 6.145 2.935ZM103.915 321.003l5.201 5.103s-3.544-3.905-5.201-5.103Z" fill="#AA92EB" stroke="#7F69BB" stroke-miterlimit="10"/><path d="M109.115 326.106s1.349-2.469 8.92-2.403l-.993-6.868s-10.976 0-13.134 4.16c1.654 1.198 5.207 5.106 5.207 5.108v.003ZM219.534 279.387s-8.82-10.817-9.541-11.644c-1.059-1.215-5.98-2.163-5.821-1.686l14.611 25.744.751-12.417v.003ZM192.734 309.871c.058.555 4.475 4.791 4.848 5.101.33.212 10.753-.124 10.973-.522-.847-.318-4.864-3.699-6.142-4.901 0 0-9.737-.232-9.679.322ZM80.857 308.981c-15.877-6.696-23.882 30.894-9.427 26.272 2.072-1.124.82-2.403.82-2.403-.112-.403-4.824-26.103 14.055-20.831l-5.448-3.04v.002Z" fill="#AA92EB" stroke="#7F69BB" stroke-miterlimit="10"/><path d="M208.555 314.448c.028 0 .65-20.04.661-20.052l-6.286-12.102c-.267 1.081-1.551 26.448-.517 27.255.056.04 5.65 4.15 6.139 4.899h.003ZM103.112 320.71c-.469.704-2.867 10.204-2.867 10.204l6.349 3.522c.597.071 2.524-8.33 2.524-8.33-.432-.212-5.515-5.933-6.004-5.396h-.002Z" fill="#AA92EB" stroke="#7F69BB" stroke-miterlimit="10"/><path d="M208.442 314.478c.04.03.093.012.113-.03-.489-.752-6.084-4.859-6.139-4.899 1.195 1.243 5.28 4.362 6.026 4.929ZM188.789 315.552c.655-.704 2.698-42.733 2.415-43.109-.282-.376-6.507-5.038-7.024-4.38-.517.656-3.202-8.285-1.795 42.938 0 0 5.746 5.254 6.404 4.551ZM152.294 286.517c2.113-2.113 6.896-.409 7.801-.061.336-4.78-10.466-9.134-12.657-8.313-2.392.767-3.237 5.381-3.237 6.72 0 1.339 5.277 4.467 8.091 1.654h.002ZM164.354 280.393c.038.07.076.141.111.214.011.002 5.3 3.26 5.313 3.257-.131-.065-5.282-3.434-5.424-3.471Z" fill="#AA92EB" stroke="#7F69BB" stroke-miterlimit="10"/><path d="M169.871 283.786c-.418-1.659-4.581-15.589-24.824-8.176 0 0 14.56-4.317 19.308 4.78.237-.007 5.395 3.686 5.516 3.396ZM135.478 315.645c2.251 3.689 11.108 8.348 24.063 6.707 14.658-1.858 18.76-25.551 6.542-32.038-8.3-4.407-18.786-3.379-18.786-3.379 19.139 1.831 17.097 13.159 14.846 21.532-2.252 8.373-26.668 7.178-26.665 7.178Z" fill="#AA92EB" stroke="#7F69BB" stroke-miterlimit="10"/><path d="M164.466 280.607c-.035-.073-.076-.144-.111-.214a.51.51 0 0 0-.287-.016l-7.778 1.924c-.913.046 3.832 3.898 3.741 4.012.134.128.325.176.504.128-.043-.103 9.727-2.375 9.236-2.579l-5.305-3.255ZM92.91 324.976c-.148-.106-5.26-5.451-5.45-5.118-6.13 25.147-25.357 23.095-28.105 23.392 1.648 1.349 10.13 8.086 14.404 7.65 10.834-3.124 15.566-10.562 17.603-16.666-.398-.279-.174-.837.28-.88 1.321-4.407 1.28-7.952 1.27-8.375l-.002-.003ZM234.357 312.617c-1.061.333-8.34-4.001-8.34-4.001l.015-.283c-.005-.02-10.161.404-10.174.396-.37.92 5.552 4.617 6.021 4.617.469 0 12.196-.376 12.478-.732v.003ZM282.755 287.926c0-14.55-13.098-25.672-24.274-25.672-11.177 0-13.025 12.314-19.177 23.809-10.963 27.313 42.647 40.857 43.451 1.863Z" fill="#AA92EB" stroke="#7F69BB" stroke-miterlimit="10"/><path d="M95.611 337.462a.463.463 0 0 0 .401.078l10.231-2.713a.468.468 0 0 0 .152-.832l-4.776-3.404a.468.468 0 0 0-.403-.068l-9.576 2.827c-.088.29-.179.582-.28.88l4.251 3.227v.005ZM178.28 316.817c1.11.142 9.581-.98 10.252-1.212-.515-.484-5.678-5.313-6.15-4.604-.499.744-10.143 1.238-10.143 1.238.187 1.054 4.881 4.384 6.041 4.578ZM234.357 312.617c.277-.351-8.033-4.148-8.325-4.281l-.015.282s7.279 4.332 8.34 4.001v-.002ZM117.466 284.053c.839.116 11.663 36.761 11.951 36.894.002.179 7.536 3.79 6.832 4.178 1.009-.06-10.019-36.269-10.41-36.78-3.729-4.715-8.373-4.292-8.373-4.292Z" fill="#AA92EB" stroke="#7F69BB" stroke-miterlimit="10"/><path d="M234.357 312.617c1.062-.333 1.969-43.364 1.969-44.019 0-.585-6.174-4.117-7.511-4.876-1.281 3.32-2.324 40.961-2.786 44.614.293.133 8.603 3.933 8.328 4.281ZM136.171 324.727c-.088-.033-6.729-3.797-6.825-3.8.456.406 5.675 3.87 6.903 4.201a.268.268 0 0 0-.078-.401Z" fill="#AA92EB" stroke="#7F69BB" stroke-miterlimit="10"/><path d="m129.198 320.93-10.31 3.635a.268.268 0 0 0-.083.457l4.531 3.829c.383.2 12.561-3.6 12.914-3.724-1.359-.312-6.432-3.968-7.052-4.197Z" fill="#AA92EB" stroke="#7F69BB" stroke-miterlimit="10"/><path d="M148.085 309.536c-4.208-1.059-6.416-4.644-7.261-7.4-.421-.716-9.147 2.433-9.147 2.433.423 27.159 39.266 14.944 34.546-4.614-.983-7.728-5.418-12.853-17.394-13.017-10.299-.139.676-13.464 7.176-4.561-.016.648 8.209-1.838 8.458-1.77-1.071-13.542-27.597-5.628-29.693 3.941-1.522 4.566-2.044 12.621 12.698 13.524 10.816.355 8.698 12.531.612 11.464h.005ZM80.857 308.981l6.646-7.969c-7.967-7.156-23.554 2.632-27.678 12.127-9.579 22.941-.482 46.392 22.532 24.391 3.903-4.942 5.383-16.255 4.952-17.828-.103.136-9.351.865-9.238 1.23 1.044 3.863-5.237 15.549-10.18 12.314-1.014-.663-1.627-1.8-1.708-3.01-1.689-25.294 14.677-21.255 14.677-21.255h-.003ZM92.165 334.229c2.718-.625 8.82-3.436 9.329-4.16.844-1.195 1.195-8.864 3.941-10.483 2.271-1.339 11.539-2.743 11.681-2.226.141.516.572 7.712 1.689 7.574 4.574-.563 10.562-3.659 10.915-4.715.353-1.057-10.703-34.759-11.266-35.886-.562-1.127-11.116.212-13.72 3.729-2.368 3.2-11.775 38.805-13.461 45.235a.754.754 0 0 0 .895.93l-.003.002ZM175.067 270.005c-.938 1.313-3.25 19.169-2.824 42.234 1.039.92 10.237-.018 10.658-.956 0 0-.704-36.589 1.407-42.498.938-2.393-8.303-.094-9.241 1.22ZM275.517 285.939c-.494-31.054-39.985-31.049-40.479 0 .494 31.052 39.985 31.05 40.479 0ZM202.836 309.871c.282-.839.093-25.699.376-26.451.282-.751 10.866 23.756 12.732 25.692.388.404 10.347-.269 10.534-.645.187-.376 2.345-44.36 2.345-44.657 0-.562-10.226-.376-10.32 0-.093.376.094 27.3-.375 27.018-.469-.282-12.196-23.642-12.478-24.487-.283-.844-11.094-.67-11.094-.67s-2.229 44.389-1.76 44.669c.469.283 9.758.366 10.037-.474l.003.005Z" fill="#E0D6FC" stroke="#7F69BB" stroke-miterlimit="10"/><path d="M112.97 307.446c1.188-.855-3.265-15.64-3.711-14.399 0 0-3.671 12.294-3.948 15.059.529 1.589 6.469.197 7.659-.658v-.002ZM258.328 297.141c3.727-2.039 5.605-5.478 5.699-8.668-.058-3.126-.217-10.466-2.812-11.489-1.081.085-5.259.733-5.935 5.592-.822 5.897-2.65 17.684 3.048 14.565Z" fill="#AA92EB" stroke="#7F69BB" stroke-miterlimit="10"/><path d="M261.33 277.511c.421-.081.507-.315.141-.54-14.858-9.18-15.695 14.714-13.133 18.741 2.203 3.484 8.01 2.589 8.829 1.694-2.266-1.349-2.398-10.793-1.056-15.486.905-3.164 3.794-4.134 5.219-4.409Z" fill="#AA92EB" stroke="#7F69BB" stroke-miterlimit="10"/><path d="M452.419 28.958c1.969 2.955 11.043-.552 11.424-.338-.383-.21-1.608-9.972-5.832-9.76-3.902.194-3.721 4.556-2.586 5.171-1.183-.915-5.282 1.5-3.008 4.924l.002.003ZM469.525 10.8c4.564-3.414-2.771-7.935-3.802-2.38-.585-2.794-4.813-3.437-6.2-.52-1.83 3.923 2.496 4.473 3.139 4.823-5.584 4.408 4.74 7.836 4.213 1.881.051-.678 2.514 1.268 2.514 1.268l1.881-3.824c-.03-.106-2.146-1.052-1.745-1.248ZM446.192 60.285c2.988-.177 3.48-2.108 3.127-3.522-.053-.215 2.302 1.595 2.355 1.288.07-.424 1.326-2.148.995-3.13-.11-.327-2.528-.498-2.382-.607 1.155-.857 2.133-2.269.587-4.245-2.755-3.52-11.111 1.323-11.398 1.232.4.177 2.254 9.246 6.716 8.984ZM448.517 44.895s4.319-3.696 9.896-3.49v-.035c-3.31-4.435-3.563-8.812-3.563-8.812-4.432 2.027-11.275 2.01-11.275 2.01s3.994 4.556 4.942 10.327Z" fill="#B9A4F4" stroke="#7F69BB" stroke-miterlimit="10"/><path d="M339.245 466.36c18.435 43.343 83.308 39.402 93.3 39.823 63.516 2.529 125.92-11.756 82.042-100.337-20.687-35.151-10.556-48.827-6.051-59.522 27.053-54.129 8.653-82.345-42.499-82.322 0 0 9.289-161.408 9.71-167.882.421-6.472 8.373-12.594 13.017-18.436 4.644-5.84 1.548-33.351 1.899-38.487.35-5.136 9.288-11.328 13.226-18.928 3.941-7.599-4.785-14.07-11.257-17.732-6.472-3.658-11.82-3.096-16.043 0-4.223 3.096-31.521 69.8-31.521 74.865 0 5.065 4.22 9.288 3.941 12.036-.283 2.748-18.857 171.606-18.857 171.606-70.22-13.791-58.703 49.034-54.318 75.989 5.851 50.519-61.598 67.27-36.589 129.324v.003Z" fill="#B9A4F4" stroke="#7F69BB" stroke-miterlimit="10"/><path d="M488.963 78.251c4.644-5.839 1.548-33.351 1.899-38.487 4.689-14.074 28.056-23.128 1.769-37.224 16.863 11.111-5.993 25-6.943 37.761-.797 5.582-.235 25.752-2.063 30.066-1.83 4.317-7.974 9.992-9.429 12.337-1.455 2.345-2.721 7.13-2.721 9.992l-10.226 168.068s.845 2.252 4.785 3.238c0 0 9.289-161.408 9.71-167.882.421-6.472 8.575-12.03 13.219-17.869ZM481.656 501.259c-19.971 6.742-90.131 1.261-91.858 1.273 33.735 4.108 93.403 11.059 126.087-10.049 16.128-15.71 20.931-56.8 1.091-86.21-22.812-33.813-12.947-49.254-8.443-59.949 27.055-54.127 8.65-82.347-42.499-82.322 31.128 2.861 48.141 19.083 45.806 40.282-.423 4.962-5.042 18.822-5.042 18.822-12.947 28.331-25.987 36.399-7.13 80.212 37.151 68.672.877 91.565-18.012 97.941Z" fill="#AA92EB" stroke="#7F69BB" stroke-miterlimit="10"/><path d="m427.267 260.764.015.016c-.005-.011-.01-.016-.015-.016ZM460.995 357.375c-.676-39.587-59.558-39.579-60.228 0 .675 39.584 59.557 39.579 60.228 0Z" fill="#B9A4F4" stroke="#7F69BB" stroke-miterlimit="10"/><path d="M461.576 351.056c-.676-39.586-59.558-39.579-60.228 0 .675 39.584 59.557 39.579 60.228 0Z" fill="#AA92EB" stroke="#7F69BB" stroke-miterlimit="10"/><path d="M483.913 280.925c.091-.139.182-.278.275-.414-.09.129-.181.268-.275.414ZM395.405 437.156c1.692 2.655 10.918 3.262 27.712 4.177 16.01.873 26.597 5.464 29.269-2.322 1.309-3.812-11.673-4.533-28.969-5.91-21.363-1.699-32.633-3.189-28.012 4.055ZM448.286 133.298c-.065 1.546 1.369 1.975 2.711 2.033l10.524.453c1.341.058 2.508-.259 2.574-1.805.065-1.545-1.508-1.752-2.849-1.81l-10.191-.686c-1.342-.058-2.701.272-2.769 1.815ZM450.45 107.612c-.065 1.512 1.327 1.931 2.628 1.989l10.211.439c1.301.055 2.433-.255 2.498-1.768.066-1.513-1.462-1.714-2.763-1.77l-9.886-.668c-1.301-.055-2.622.267-2.685 1.78l-.003-.002ZM464.637 88.606c3.502.273 3.295-3.87-.265-3.537l-9.886-.668c-1.301-.056-2.622.267-2.685 1.78-.065 1.513 1.326 1.931 2.627 1.989l10.211.439-.002-.003ZM434.906 244.701c-.129 1.755 1.737 2.307 3.492 2.436l13.753.998c1.755.129 3.288-.179 3.414-1.934.129-1.754-1.926-2.062-3.681-2.188l-13.312-1.248c-1.755-.129-3.54.184-3.669 1.939l.003-.003Z" fill="#B9A4F4" stroke="#7F69BB" stroke-miterlimit="10"/><path d="M459.651 165.173c1.376.06 2.571-.265 2.639-1.851.068-1.583-1.545-1.798-2.922-1.856l-10.448-.703c-1.377-.061-2.768.277-2.839 1.861l.003.002" fill="#B9A4F4"/><path d="M459.651 165.173c1.376.06 2.571-.265 2.639-1.851.068-1.583-1.545-1.798-2.922-1.856l-10.448-.703c-1.377-.061-2.768.277-2.839 1.861l.003.002" stroke="#7F69BB" stroke-miterlimit="10"/><path d="M441.246 198.269c-.132 1.798 1.527 2.348 3.088 2.461l12.254.89c1.563.114 2.932-.217 3.063-2.014.131-1.798-1.697-2.096-3.26-2.209l-11.858-1.15c-1.563-.113-3.159.225-3.29 2.022h.003Z" fill="#B9A4F4" stroke="#7F69BB" stroke-miterlimit="10"/><path d="M150.579 144.19c2.103 4.362 13.784 11.172 14.354 10.421 22.495 5.352 24.308-7.325 19.701-14.167-1.374-2.04-5.597-2.353-6.847-4.503-7.216-12.612-18.701-11.671-31.242-7.506-4.177 1.77-5.549 6.626-5.44 9.16.068 1.603 3.189-6.447 9.474 6.595Z" fill="#AA92EB" stroke="#7F69BB" stroke-miterlimit="10"/><path d="M126.097 171.219c3.565-4.69 11.447-3.097 15.761-.563 4.316 2.534 16.791 5.348 16.791 5.348s4.128-4.221 5.242-5.348c1.115-1.127 13.426-5.161 15.773-6.099 2.348-.938 1.031-5.91 0-10.506s-35.555-16.451-48.126-1.596c-4.241 5.012-6.099 11.351-6.379 14.354-.282 3.003 0 6.414.938 4.41Z" fill="#AA92EB" stroke="#7F69BB" stroke-miterlimit="10"/><path d="M149.918 197.695c1.336 1.265 12.314 3.595 15.831-2.423 3.517-6.019 14.495-21.57 18.506-22.906 4.012-1.337 5.845-7.433 3.87-8.303-9.709-1.177-24.28-.126-34.899 6.261-5.623 4.104-13.509 21.814-13.509 21.814.837 1.759 8.915 4.301 10.203 5.559l-.002-.002ZM236.14 114.553c-3.659.375-10.975-.845-15.105 3.189-14.883 10.557-40.326 15.208-15.667 33.117 16.721-5.559 41.949-5.879 37.055-38.089l.375-.469s-3.002 1.876-6.658 2.252ZM233.627 146.913c-6.855 2.252-27.227 14.641-22.721 23.458 4.503 8.82 10.506 19.984 23.74 12.947 11.709-6.225 16.129-8.161 22.321-5.441-5.161-6.848-3.338-22.207-9.999-21.738-1.501-1.314-.414-2.09-.414-4.06 0-1.969-6.071-7.417-12.927-5.166Z" fill="#AA92EB" stroke="#7F69BB" stroke-miterlimit="10"/><path d="M193.616 150.665c4.848.371 10.383.474 10.91-.368.938-1.5-1.501-6.568 0-12.289 1.5-5.723 1.596-4.104 1.596-4.104s4.291 12.77 5.839 13.614c1.548.845 5.839.106 6.227-.353.386-.456-1.301-3.202-2.322-4.785-6.981-5.733-.549-27.338-9.217-27.689-4.786-.315-4.082-.315-4.118-1.159-.035-.845-.04-3.011.22-3.19.259-.176-7.421 1.036-7.421 1.036s.845 1.579-1.313 1.952c-2.158.376-5.254.186-6.286.469-1.031.282-4.22 6.472-4.034 8.35.167 1.657 1.576 21.308 2.29 26.333 2.637-.628 5.403.559 7.627 2.18l.002.003ZM150.676 164.464c-2.403 9.941-13.363 28.39-21.953 39.872-6.286 7.41-6.754 12.571-7.319 13.978-.562 1.406-2.345 4.316-4.503 5.909-2.158 1.596-1.783 2.534 1.969 2.534 10.319-.264 8.07-6.202 13.509-10.292 1.972-1.341.751-4.435.845-6.593 2.259-9.755 26.337-24.03 28.442-36.621 0 0 11.147-5.971 24.093-8.222 15.252-2.892 14.465-9.858 7.854-14.361-3.777-.288-7.138-.739-7.385-1.027-.065-.075-.148-.489-.242-1.154-3.61 2.291-33.207 7.137-35.313 15.977h.003ZM175.912 125.81c5.088-2.236 11.739-18.261 15.667-21.67 2.565-2.632 3.487-4.899 1.584-8.068-6.366 4.463-3.016 4.208-5.618 9.944-2.314 2.962-21.715 11.537-18.576 17.823.844 1.127 4.409 2.627 6.943 1.971Z" fill="#E0D6FC" stroke="#7F69BB" stroke-miterlimit="10"/><path d="M197.325 136.47c5.56-.035 7.67 1.899 7.67 1.899 5.01-10.322-6.389-15.988-14.318-14.246 0 0 .774 11.856.95 12.206.177.35.141.176 5.698.141Z" fill="#AA92EB" stroke="#7F69BB" stroke-miterlimit="10"/><path d="M183.887 134.816s-.058.404-.152 1.092c.142-.401.2-.766.152-1.092Z" fill="#9180B7" stroke="#7F69BB" stroke-miterlimit="10"/><path d="M182.573 153.111c.673 5.231 2.398 12.528 8.94 12.067 5.214.279 12.004-1.16 12.435-7.436.152-2.123-.844-7.601-1.356-8.766-3.621-8.207-12.493-27.843-15.231-29.545-3.472-2.158-7.882-.562-9.099 1.596-2.63 5.741-12.216 26.643-13.041 33.493-1.921 5.408.331 10.872-5.161 15.667-3.002 2.159-1.5 3.096.656 3.19 2.158.093 6.286-3.096 6.941-5.255.656-2.158 2.065-4.503 3.941-6.003s1.596-4.22.375-5.723c-5.932-5.401 12.735-17.19 11.916-21.577-.489 3.948-1.931 14.109-1.314 18.294l-.002-.002Z" fill="#E0D6FC" stroke="#7F69BB" stroke-miterlimit="10"/><path d="M215.221 167.184c28.614-5.161 17.962-30.338 17.357-29.569-14.422 16.297-29.663 3.378-45.499 26.38-.938 3.845-2.496 4.765-4.221 5.348-22.046 7.412-16.017 26.501-12.757 29.834 8.254 8.444 10.133 1.127 19.325 9.664.434.403.656-10.413 9.006-13.885 4.919-2.044 25.705-10.975 15.385-26.269-.376-1.313-.698-1.122 1.407-1.5l-.003-.003ZM186.793 114.601c.91-1.521 6.417-.563 8.56-1.596.708-.51-.083-2.683.633-2.678 1.628.01 4.445-2.052 4.891-.769.307 1.687-.757 3.921 1.944 4.758 3.232 1.104 2.962.285 4.523.466 5.254.61 4.488 12.435 4.488 12.435 18.849-13.413-1.954-10.753 4.092-24.86 4.115-14.87-5.978-19.32-18.857-15.619-4.689 2.345-4.924 9.288-4.41 11.54 1.375 4.019-10.48 12.233-5.864 16.323Z" fill="#AA92EB" stroke="#7F69BB" stroke-miterlimit="10"/><path d="M194.112 111.27c.421.328 6.895-.131 6.855-.862-.376-6.755 4.45-5.282 5.905-9.737 1.535-4.708.655-4.128-2.065-6.286-4.475-3.212-10.461-2.022-9.851 1.5 0 0-.844 3.19-.751 4.41.093 1.22-.656 1.5-.938 2.158-.282.656 0 8.161.845 8.82v-.003Z" fill="#E0D6FC" stroke="#7F69BB" stroke-miterlimit="10"/><path d="M196.693 97.01s1.172.892 2.438.234c0 0 2.251 1.984 4.316.242s4.269-3.724 3.848-6.016c-.439-2.07-2.257-3.308-4.221-3.58-8.85-1.437-8.64 7.824-12.102 7.854-.658-.19 3.8 2.251 5.723 1.266h-.002Z" fill="#AA92EB" stroke="#7F69BB" stroke-miterlimit="10"/><path d="M200.626 101.535c.497-.221 1.061-.153 1.583-.065.583.098 1.152.257 1.737.325.164.02.401-.058.477-.217.076-.159-.071-.262-.214-.28-1.301-.153-2.615-.728-3.896-.156-.126.058-.28.207-.179.351.101.143.363.098.492.042Z" fill="#7F69BB"/><path d="M200.943 101.089c-.153.114-.285.272-.312.469-.023.159.025.3.098.439a.81.81 0 0 0 .489.381.898.898 0 0 0 .406.002.765.765 0 0 0 .54-.434c.017-.04.03-.085.017-.128-.015-.058-.063-.096-.116-.119a.417.417 0 0 0-.164-.032.55.55 0 0 0-.242.052c-.017.011-.035.018-.053.026l.096-.036a.386.386 0 0 1-.063.018l.099-.018c-.023.005-.048.005-.071.008h.093a.584.584 0 0 1-.093-.008l.083.016a.539.539 0 0 1-.123-.041l.07.03a.571.571 0 0 1-.141-.09l.05.045a.44.44 0 0 1-.1-.123l.03.057a.29.29 0 0 1-.03-.103v.066a.28.28 0 0 1 .012-.076l-.023.066a.235.235 0 0 1 .031-.056l-.046.063a.417.417 0 0 1 .041-.043l-.063.056a.462.462 0 0 1 .055-.041l-.081.046a.497.497 0 0 1 .081-.038l-.504-.227-.164.247c-.05.076-.018.189.063.232.356.187.766.179 1.135.028a.402.402 0 0 0 .189-.164c.027-.056.035-.136-.01-.187-.121-.138-.346-.1-.492-.04l-.033.013.096-.036a1.381 1.381 0 0 1-.136.038l.098-.017a.925.925 0 0 1-.141.012h.093a.918.918 0 0 1-.164-.015l.084.015a.89.89 0 0 1-.179-.058l.07.03-.043-.02.063.232.164-.247a.174.174 0 0 0 .018-.128c-.015-.058-.063-.096-.116-.119-.131-.058-.277-.03-.406.02-.151.058-.315.169-.388.318a.377.377 0 0 0-.015.318.67.67 0 0 0 .229.274.906.906 0 0 0 .383.144.952.952 0 0 0 .562-.093l-.504-.227a.548.548 0 0 1-.055.101l.045-.063c-.018.022-.035.045-.058.065l.063-.055a.446.446 0 0 1-.05.035l.08-.045a.233.233 0 0 1-.042.02l.095-.035a.244.244 0 0 1-.05.012l.098-.017c-.017.002-.032.005-.05.005h.093a.316.316 0 0 1-.068-.008l.083.015a.561.561 0 0 1-.093-.03l.071.03a.547.547 0 0 1-.139-.091l.05.046a.692.692 0 0 1-.156-.202l.03.058a.504.504 0 0 1-.06-.217v.066a.47.47 0 0 1 .025-.157l-.023.066a.344.344 0 0 1 .056-.103l-.046.063a.532.532 0 0 1 .076-.081l-.063.055.035-.027c.058-.043.121-.109.131-.182a.17.17 0 0 0-.083-.166.401.401 0 0 0-.247-.048.564.564 0 0 0-.275.098l.005-.005ZM197.018 100.59c-.06.469-.206.915-.476 1.308a2.87 2.87 0 0 1-.351.414c-.138.141-.209.199-.345.313-.363.297-1.029.703-.845 1.27.134.414.555.719.88.974.235.181.888-.154.57-.401a3.88 3.88 0 0 1-.489-.434 1.138 1.138 0 0 1-.222-.313c-.043-.123-.045-.118-.01-.237-.02.066.028-.045.043-.07.025-.043-.038.043.01-.013.02-.023.038-.045.058-.065.04-.043.086-.084.128-.124-.05.045.003-.002.026-.02.027-.023.055-.048.085-.071.119-.096.237-.189.353-.287.295-.25.56-.517.782-.835.303-.436.474-.945.542-1.47.045-.348-.698-.239-.736.066l-.003-.005Z" fill="#7F69BB"/><path d="M196.902 100.774c-.161-.469-.627-.673-1.096-.678-.502-.005-1.029.136-1.44.431-.116.083-.194.252-.048.35.146.099.386.046.522-.05l.101-.068c.03-.02-.083.043-.013.007l.063-.032c.038-.018.076-.036.114-.051.027-.01.096-.028-.015.005.02-.005.04-.015.06-.02.043-.013.083-.025.126-.035l.066-.015c.015-.003.027-.005.043-.01a.767.767 0 0 1-.046.007c.088-.01.184-.01.272-.025-.09.013-.04 0-.007 0 .02 0 .043 0 .063.005.02.005.04.005.063.008.066.01.015.017-.003 0 .018.017.101.025.127.035.01.002.073.028.03.01-.043-.018.027.015.035.018.033.017.063.042.096.063.048.03-.03-.038.007.005.013.015.028.027.041.043.025.03.048.063.07.095.026.038-.01-.032.013.026.01.022.018.047.028.07.055.164.287.174.426.131.121-.035.36-.159.302-.328v.003Z" fill="#7F69BB"/><path d="M195.573 100.976a.318.318 0 0 1-.043-.028l.05.045a.255.255 0 0 1-.055-.07l.03.058a.315.315 0 0 1-.028-.104v.066c0-.033.005-.063.016-.096l-.023.066a.293.293 0 0 1 .028-.056l-.046.063.01-.012-.648-.126a.736.736 0 0 0-.096.174.773.773 0 0 0-.055.211.555.555 0 0 0 .015.182c.015.05.04.101.073.139.159.174.419.161.62.078.006 0 .013-.005.018-.008a.507.507 0 0 0 .262-.249.686.686 0 0 0 .061-.328 1.805 1.805 0 0 0-.046-.351l-.731.197a.33.33 0 0 1 .02.088v-.065a.415.415 0 0 1-.02.126l.023-.066a.415.415 0 0 1-.048.091l.045-.063a.4.4 0 0 1-.052.058l.063-.056c-.016.013-.028.023-.046.031l.081-.046a.181.181 0 0 1-.051.023l.096-.035-.022.007.345.031s-.008-.005-.01-.008l.05.045a.298.298 0 0 1-.063-.083l.031.058a.313.313 0 0 1-.033-.131v.066c0-.041.007-.084.02-.121l-.023.065a.248.248 0 0 1 .041-.075l-.046.063s.015-.021.023-.028c.045-.048.081-.124.063-.192-.018-.068-.088-.116-.151-.133a.505.505 0 0 0-.278 0 .516.516 0 0 0-.385.451.483.483 0 0 0 .118.36.5.5 0 0 0 .068.061c.028.02-.048 0 .073.035a.546.546 0 0 0 .278 0 .91.91 0 0 0 .262-.118.55.55 0 0 0 .138-.126c.038-.051.076-.096.096-.152.02-.055.043-.116.046-.176a.43.43 0 0 0-.023-.179.134.134 0 0 0-.056-.081.17.17 0 0 0-.095-.053.342.342 0 0 0-.131-.015.427.427 0 0 0-.147.018.483.483 0 0 0-.239.136c-.046.055-.081.116-.063.192.02.088.035.179.04.269v-.065c0 .083 0 .169-.03.247l.023-.066a.237.237 0 0 1-.036.071l.046-.063s-.018.023-.028.03l.063-.055-.023.015.081-.046-.018.008.096-.035s-.013.002-.018.005l.099-.018h-.018.093-.02l.083.015-.025-.007.071.03s-.023-.013-.033-.023l.05.046a.256.256 0 0 1-.042-.056l.03.058a.289.289 0 0 1-.028-.111v.066c0-.058.01-.114.028-.167l-.023.066a.807.807 0 0 1 .104-.197.136.136 0 0 0 .02-.098.127.127 0 0 0-.031-.091.285.285 0 0 0-.163-.086.506.506 0 0 0-.235.01.488.488 0 0 0-.239.137.497.497 0 0 0-.114.216.215.215 0 0 0-.007.056c0 .038 0 .078.007.116a.513.513 0 0 0 .071.156.528.528 0 0 0 .133.119.27.27 0 0 0 .111.04c.046.01.089.015.136.008a.435.435 0 0 0 .147-.036.413.413 0 0 0 .128-.063c.058-.043.126-.106.131-.181.005-.066-.02-.136-.083-.167l.013-.007ZM205.543 100.643c-1.087-1.258-3.093-1.1-4.548-.739-.136.033-.346.159-.303.328.043.169.3.164.426.131 1.198-.297 2.857-.446 3.754.59.202.232.898-.048.671-.31ZM197.103 99.407c-.738-.796-1.966-.756-2.881-.302-.119.058-.29.21-.179.35.111.142.358.106.491.04l.136-.062a.551.551 0 0 1 .063-.026c.031-.012.069-.025.016-.007.09-.03.184-.058.277-.08.028-.006.055-.013.083-.018-.038.007-.035.004 0 0 .051-.008.101-.013.151-.018.051-.005.101-.008.152-.008h.007c.028 0 .056 0 .083.005.192.013.313.036.507.124.126.058.305.186.424.313.118.126.343.11.491.04.109-.05.303-.22.179-.35ZM198.237 107.808c-.444-.221-.781-.615-1.195-.882a1.653 1.653 0 0 0-.734-.282 1.316 1.316 0 0 0-.912.269c-.114.086-.197.253-.048.351.149.098.391.048.522-.051l.073-.053c.078-.052-.063.031.017-.007.071-.033-.075.015.005-.003l.026-.007c.032-.008.032-.008 0 0-.033.005-.033.005 0 0h.025c.076-.013-.063-.01.005 0 .025.002.05.007.076.007-.076-.005-.003 0 .015.005.048.013.09.031.136.048.03.013-.03-.017.018.008l.073.038a2.7 2.7 0 0 1 .282.181c.35.255.658.588 1.049.782a.52.52 0 0 0 .522-.051c.103-.075.212-.267.045-.353Z" fill="#7F69BB"/><path d="M195.121 108.219c.118.253.274.459.542.565.247.098.529.071.784.013.239-.056.469-.154.698-.24.01-.005.101-.035.043-.015-.058.02.045-.015.056-.018a2.01 2.01 0 0 1 .226-.063c0 .003.096-.022 0 0l.172-.015c.151-.002.383-.113.406-.282.025-.184-.202-.217-.33-.214a2.233 2.233 0 0 0-.651.133c-.118.041-.234.086-.35.129-.051.02-.101.043-.152.058a.44.44 0 0 0 .008-.003c-.025.008-.051.018-.076.025a1.151 1.151 0 0 1-.136.038.34.34 0 0 0-.073.018c.005-.013.093-.013.015-.003l-.071.008c-.07.008 0-.01.013 0-.005-.005-.055-.005-.068-.005-.071 0 .063.023-.002 0-.021-.008-.043-.013-.064-.02-.05-.015.028.017 0 0-.02-.013-.04-.023-.058-.038-.015-.01-.042-.033-.015-.008a.815.815 0 0 1-.186-.259c-.073-.157-.273-.179-.426-.131-.104.03-.379.169-.305.327Z" fill="#7F69BB"/><path d="M195.858 107.94a1.606 1.606 0 0 0-.202-1.246c-.038-.061-.144-.086-.204-.093a.544.544 0 0 0-.288.053c-.131.065-.275.196-.179.35.023.038.043.076.063.114l-.03-.058c.088.179.139.37.151.569v-.065c.003.149-.01.297-.048.441-.017.066.036.134.084.166a.411.411 0 0 0 .247.048c.169-.02.36-.103.406-.279Z" fill="#7F69BB"/><path d="M195.245 107.725c.308.741 1.291.58 1.876.31a.388.388 0 0 0 .189-.164c.028-.055.035-.136-.01-.186-.119-.134-.348-.106-.492-.041-.027.013-.053.026-.08.036a.47.47 0 0 0-.038.015c.075-.028-.023.007-.043.013-.03.01-.063.017-.093.025-.021.005-.084.007-.096.02.005-.005.108-.018.043-.008-.015 0-.033.005-.048.008-.03.002-.058.007-.088.007h-.048c-.063.003.093.006.03 0a.515.515 0 0 1-.086-.007c-.015 0-.03-.005-.045-.008-.038-.005.083.021.033.005a.929.929 0 0 1-.086-.025c-.03-.01-.043-.033.015.008-.013-.008-.025-.013-.038-.02-.023-.013-.043-.033-.065-.046-.028-.015.042.043.012.01-.01-.01-.02-.02-.03-.033a.382.382 0 0 1-.055-.075l-.008-.013c-.013-.022-.01-.017.005.013-.01-.008-.018-.035-.02-.048-.066-.161-.28-.177-.426-.131a.481.481 0 0 0-.24.136c-.04.048-.091.124-.063.192l-.005.007Z" fill="#7F69BB"/><path d="M195.297 108.164c.499.658 1.467.323 2.047-.025.121-.073.194-.265.048-.351-.167-.096-.371-.04-.522.051-.01.005-.063.038-.005.005s.005-.003-.008.002c-.028.015-.055.031-.083.043a3.514 3.514 0 0 1-.212.096c-.068.028.073-.023.031-.01l-.094.03c-.03.01-.063.015-.093.023-.03.007-.081.007.033-.005-.015 0-.031.005-.048.007-.028.003-.056.008-.083.008H196.29c-.028 0-.063-.013-.091-.01.02 0 .073.02.023.002l-.043-.012-.043-.015c-.033-.011.063.035.013.005-.025-.016-.053-.031-.078-.048-.005-.005-.028-.015-.031-.023l.015.013a.087.087 0 0 0-.015-.013c-.025-.028-.05-.055-.073-.083-.103-.139-.358-.109-.491-.041-.119.061-.29.207-.179.351ZM195.478 120.682a8.211 8.211 0 0 0-3.804 3.202c-.096.154.083.267.214.28.179.017.381-.061.476-.217a7.403 7.403 0 0 1 3.424-2.874c.129-.053.278-.21.179-.351-.098-.141-.36-.096-.491-.04h.002Z" fill="#7F69BB"/><path d="M193.814 122.157a8.338 8.338 0 0 0-.073-2.105c-.028-.169-.308-.169-.426-.131-.144.042-.333.151-.303.327.106.656.126 1.316.066 1.977-.033.353.708.24.736-.066v-.002ZM196.35 97.212c1.483-1.133 2.996-2.378 3.775-4.12.164-.366-.573-.336-.694-.063-.736 1.646-2.155 2.813-3.555 3.885-.118.09-.191.245-.048.35.144.106.396.046.522-.05v-.002ZM203.158 92.71c-.852 1.781-1.997 3.677-3.848 4.554-.126.06-.282.207-.179.35.104.144.363.102.492.041 2.019-.955 3.295-2.932 4.228-4.884.172-.358-.565-.332-.693-.06ZM215.521 116.988c-1.822-1.734-4.313-3.066-5.403-5.441-.834-1.82-.481-3.872.079-5.718.6-1.974 1.482-3.845 2.193-5.779.62-1.681 1.21-3.52.956-5.335-.323-2.291-2.196-3.683-4.211-4.513-.285-.116-.85.29-.429.464 1.783.734 3.455 1.95 3.858 3.94.356 1.758-.222 3.611-.819 5.25-.696 1.916-1.559 3.767-2.181 5.708-.558 1.735-.996 3.719-.431 5.512.89 2.829 3.696 4.299 5.718 6.222.222.212.913-.08.67-.31ZM187.798 114.142c.167 0 .401-.045.477-.217.068-.151-.061-.28-.214-.28-.167 0-.401.046-.477.217-.068.151.061.28.214.28Z" fill="#7F69BB"/><path d="M192.233 105.078c-2.628 1.578-2.234 5-3.573 7.392-.361.646-.875 1.145-1.563 1.427-.129.053-.28.212-.179.351.101.138.358.096.491.04 2.862-1.165 2.607-4.788 3.765-7.163.35-.721.842-1.331 1.535-1.747.131-.078.182-.252.048-.351-.151-.108-.383-.032-.522.051h-.002ZM206.758 88.269c2.339-1.571 5.317-.144 7.253 1.421.232.187.883-.148.57-.4-2.284-1.846-5.617-3.12-8.297-1.319-.127.086-.187.25-.048.35.138.101.388.038.522-.05v-.002ZM205.285 87.55c.267-.28.529-.494.882-.706.021-.013.041-.023.058-.035.051-.03-.043.022.008-.005.045-.023.091-.05.136-.074.086-.045.174-.085.265-.123l.126-.053.081-.03c.032-.013.037-.013 0 0a6.18 6.18 0 0 1 .295-.094c.131-.037.35-.159.302-.327-.048-.17-.297-.17-.426-.131a5.121 5.121 0 0 0-2.335 1.394c-.111.116-.068.282.089.325.174.05.39-.005.516-.139l.003-.002ZM213.114 124.343c1.114-.865 2.229-1.805 3.036-2.975.453-.658.804-1.452.67-2.269-.254-1.561-2.082-2.466-3.338-3.107-1.813-.925-3.739-1.679-5.403-2.871-.739-.53-1.42-1.163-1.881-1.954-.461-.792-.613-1.715-.497-2.617.169-1.309.805-2.519 1.521-3.606.527-.802 1.122-1.545 1.608-2.375.583-.988 1.117-2.042 1.412-3.157.114-.428.179-.864.136-1.306-.03-.305-.764-.133-.731.197.098 1.009-.418 2.095-.847 2.975-.469.958-1.016 1.901-1.669 2.751-.875 1.142-1.649 2.443-2.02 3.842-.249.943-.272 1.959.068 2.885.316.849.888 1.563 1.561 2.158 1.52 1.344 3.437 2.156 5.247 3.026.832.4 1.669.809 2.44 1.318.58.383 1.188.873 1.475 1.465.311.638.235 1.291-.055 1.906-.489 1.039-1.382 1.883-2.236 2.622-.318.275-.646.537-.976.794-.391.303.207.507.474.298h.005Z" fill="#7F69BB"/></svg>