<svg width="1280" height="76" fill="none" xmlns="http://www.w3.org/2000/svg"><g clip-path="url(#a)"><mask id="b" maskUnits="userSpaceOnUse" x="93" y="-1" width="359" height="42" fill="#000"><path fill="#fff" d="M93-1h359v42H93z"/><path fill-rule="evenodd" clip-rule="evenodd" d="M299.001 0H449.5s-1.947 3.188-12 5.5C427.29 8.62 416.231 7.1 406.62 2.36a36.324 36.324 0 0 1-8.142 13.486 35.675 35.675 0 0 1-13.028 8.681 35.349 35.349 0 0 1-15.447 2.233 35.588 35.588 0 0 1-14.939-4.64c-7.692-4.506-13.573-11.822-18.308-19.553-8.805 6.47-20.719 5.719-30.839 1.25-8.089 8.962-19.096 13.859-31.105 16.201-13.616 2.656-27.707-.047-39.467-7.569a47.637 47.637 0 0 1-12.369 16.47 46.17 46.17 0 0 1-18.019 9.52 45.444 45.444 0 0 1-20.256.769 45.971 45.971 0 0 1-18.656-8.13c-9.314-6.95-15.904-17.315-20.957-28.063C129.882 11.972 109.343 11.345 96 0h203.001Z"/></mask><path fill-rule="evenodd" clip-rule="evenodd" d="M299.001 0H449.5s-1.947 3.188-12 5.5C427.29 8.62 416.231 7.1 406.62 2.36a36.324 36.324 0 0 1-8.142 13.486 35.675 35.675 0 0 1-13.028 8.681 35.349 35.349 0 0 1-15.447 2.233 35.588 35.588 0 0 1-14.939-4.64c-7.692-4.506-13.573-11.822-18.308-19.553-8.805 6.47-20.719 5.719-30.839 1.25-8.089 8.962-19.096 13.859-31.105 16.201-13.616 2.656-27.707-.047-39.467-7.569a47.637 47.637 0 0 1-12.369 16.47 46.17 46.17 0 0 1-18.019 9.52 45.444 45.444 0 0 1-20.256.769 45.971 45.971 0 0 1-18.656-8.13c-9.314-6.95-15.904-17.315-20.957-28.063C129.882 11.972 109.343 11.345 96 0h203.001Z" fill="#FFFCF5"/><path d="m449.5 0 .853.521.929-1.521H449.5v1ZM299.001 0v-1h-3.134l2.554 1.815.58-.815ZM437.5 5.5l-.224-.975-.035.008-.033.01.292.957Zm-30.88-3.14.443-.897-1.025-.505-.365 1.083.947.32Zm-8.142 13.486.723.69-.723-.69Zm-13.028 8.681.358.934-.358-.934Zm-15.447 2.233.079-.997-.079.997Zm-14.939-4.64-.505.863.007.004.498-.866ZM336.756 2.568l.853-.522-.569-.928-.876.645.592.805Zm-30.839 1.25.404-.915-.662-.292-.485.537.743.67Zm-31.105 16.201.191.982-.191-.982Zm-39.467-7.569.539-.842-.971-.621-.478 1.049.91.414Zm-12.369 16.47.65.76-.65-.76Zm-18.019 9.52-.26-.965.26.965Zm-38.912-7.361-.598.801.007.005.591-.806ZM145.088 3.015l.905-.425-.467-.993-.946.557.508.861ZM96 0v-1h-2.72L95.352.762 96 0Zm203.001 0v1h3.134L299.58-.815l-.579.815ZM449.5-1H299.001v2H449.5v-2Zm-11.776 7.475c5.108-1.175 8.217-2.586 10.075-3.743.929-.58 1.546-1.095 1.942-1.486.198-.195.34-.359.439-.482a2.86 2.86 0 0 0 .115-.155c.015-.02.026-.038.036-.053l.013-.02.005-.008.002-.003.001-.002A45.5 45.5 0 0 0 449.5 0a47.004 47.004 0 0 1-.852-.523v-.001l.002-.003a.051.051 0 0 1 .003-.005l.004-.006-.001.001c-.005.007-.018.026-.042.056a3.55 3.55 0 0 1-.278.303c-.283.28-.781.705-1.595 1.212-1.629 1.015-4.52 2.354-9.465 3.491l.448 1.95Zm-31.546-3.218c9.799 4.834 21.121 6.407 31.614 3.2l-.584-1.913c-9.928 3.035-20.724 1.567-30.145-3.08l-.885 1.793Zm-6.977 13.28a37.328 37.328 0 0 0 8.367-13.857l-1.895-.64a35.336 35.336 0 0 1-7.918 13.115l1.446 1.382Zm-13.393 8.924a36.668 36.668 0 0 0 13.393-8.924l-1.446-1.382a34.675 34.675 0 0 1-12.663 8.438l.716 1.868Zm-15.884 2.296a36.35 36.35 0 0 0 15.884-2.296l-.716-1.867a34.348 34.348 0 0 1-15.01 2.169l-.158 1.994Zm-15.358-4.77a36.58 36.58 0 0 0 15.358 4.77l.158-1.994a34.585 34.585 0 0 1-14.519-4.51l-.997 1.734ZM335.903 3.09c4.771 7.789 10.757 15.266 18.656 19.893l1.011-1.725c-7.485-4.386-13.262-11.54-17.961-19.213l-1.706 1.045Zm-30.39 1.641c10.299 4.549 22.631 5.405 31.835-1.358l-1.184-1.611c-8.406 6.176-19.903 5.53-29.843 1.14l-.808 1.83ZM275.003 21c12.148-2.37 23.379-7.341 31.656-16.513l-1.485-1.34c-7.9 8.753-18.682 13.574-30.554 15.89l.383 1.963Zm-40.196-7.708c11.974 7.66 26.327 10.413 40.196 7.708l-.383-1.963c-13.361 2.606-27.191-.046-38.736-7.43l-1.077 1.685Zm-11.181 16.387a48.64 48.64 0 0 0 12.63-16.815l-1.821-.83a46.633 46.633 0 0 1-12.109 16.125l1.3 1.52Zm-18.41 9.726a47.163 47.163 0 0 0 18.41-9.726l-1.3-1.52a45.17 45.17 0 0 1-17.629 9.315l.519 1.931Zm-20.701.785a46.442 46.442 0 0 0 20.701-.785l-.519-1.931a44.441 44.441 0 0 1-19.81.751l-.372 1.965Zm-19.061-8.306a46.966 46.966 0 0 0 19.061 8.306l.372-1.965a44.974 44.974 0 0 1-18.25-7.953l-1.183 1.612ZM144.183 3.441c5.081 10.808 11.758 21.345 21.264 28.438l1.196-1.603c-9.122-6.806-15.626-17-20.65-27.686l-1.81.851ZM95.353.761c13.708 11.656 34.718 12.26 50.242 3.116l-1.015-1.723c-14.888 8.769-34.955 8.118-47.932-2.916L95.352.762ZM299-1H96v2h203.001v-2Zm-.58 1.815h.001l1.158-1.63-1.159 1.63Z" fill="#F0E9DD" mask="url(#b)"/><path d="M557.494 19.925a.5.5 0 0 0-.986-.012l-6.09 34.381-27.511 5.215a.5.5 0 0 0 0 .982l27.511 5.215 6.09 34.381a.5.5 0 0 0 .986-.012l5.19-34.369 28.406-5.214a.5.5 0 0 0 0-.984l-28.406-5.214-5.19-34.369ZM1092.99-23.075a.49.49 0 0 0-.48-.425.495.495 0 0 0-.5.413l-6.73 37.853-30.37 5.743a.499.499 0 0 0 0 .982l30.37 5.743 6.73 37.853c.04.242.25.416.5.413a.49.49 0 0 0 .48-.425l5.73-37.84 31.37-5.743c.24-.044.41-.25.41-.492a.498.498 0 0 0-.41-.492l-31.37-5.742-5.73-37.84ZM20.994-14.075a.5.5 0 0 0-.986-.012L16.54 5.538.907 8.508a.5.5 0 0 0 0 .983l15.633 2.971 3.468 19.625a.5.5 0 0 0 .986-.013l2.954-19.611L40.09 9.491a.5.5 0 0 0 0-.984l-16.142-2.97-2.954-19.613ZM916.49 19.899a.501.501 0 0 0-.976-.016l-3.433 14.222-11.227 3.417a.5.5 0 0 0 .02.962l11.208 2.924 3.431 14.706a.5.5 0 0 0 .977-.016l2.938-14.69 11.693-2.923a.5.5 0 0 0 .019-.965l-11.711-3.416L916.49 19.9Z" fill="#FFFCF5" stroke="#F0E9DD" stroke-linejoin="round"/><path d="m713.003 81.768-.487-.113-.143.613h148.609l.018-.48-.066-.004.066.003v-.014l.001-.035.003-.134a27.6 27.6 0 0 0 0-.504 31.077 31.077 0 0 0-.082-1.842 36.588 36.588 0 0 0-.975-6.106c-1.194-4.79-3.737-10.613-9.151-14.57-9.611-7.027-18.849-8.222-25.688-7.65a35.346 35.346 0 0 0-8.194 1.665 27.44 27.44 0 0 0-2.624 1.023 26.919 26.919 0 0 0-6.743-8.904 26.448 26.448 0 0 0-10.226-5.484 26.206 26.206 0 0 0-11.557-.556 26.369 26.369 0 0 0-10.694 4.479l-.003.002c-5.209 3.762-8.942 9.344-11.818 15.13-4.472-2.471-12.892-4.542-21.467-4.088-8.892.47-18.088 3.667-23.208 12.116-2.028 3.346-3.541 7.183-4.546 10.172a69.257 69.257 0 0 0-1.416 4.777 25.66 25.66 0 0 0-.072.289l-.018.075-.004.02-.001.005-.001.001.487.114Z" fill="#FFFCF5" stroke="#F0E9DD"/></g><defs><clipPath id="a"><path fill="#fff" d="M0 0h1280v76H0z"/></clipPath></defs></svg>
