<svg xmlns="http://www.w3.org/2000/svg" width="1280" height="58" fill="none"><g fill="#FFFCF5" stroke="#F0E9DD" clip-path="url(#a)"><path d="M110.77-.5h-1.36l1.036.88c10.385 8.83 26.253 9.409 38.147 2.661 3.9 8.186 8.991 16.094 16.163 21.445l.003.002a36.124 36.124 0 0 0 14.661 6.39c5.286 1 10.722.793 15.921-.605a36.28 36.28 0 0 0 14.16-7.481 37.388 37.388 0 0 0 9.475-12.418c9.123 5.666 19.975 7.678 30.468 5.63 9.258-1.805 17.801-5.564 24.14-12.445 7.698 3.305 16.753 3.9 23.628-.852 3.641 5.854 8.17 11.405 14.082 14.868l.003.002a28.077 28.077 0 0 0 11.788 3.66 27.89 27.89 0 0 0 12.189-1.761 28.148 28.148 0 0 0 10.28-6.85 28.647 28.647 0 0 0 6.236-10.102c7.418 3.524 15.904 4.622 23.773 2.222 3.926-.904 6.301-1.986 7.707-2.862.705-.439 1.166-.826 1.458-1.114.145-.144.248-.262.318-.35.034-.043.06-.078.079-.105l.023-.034.008-.012.003-.005.001-.002c.001 0 .001-.001-.426-.262l.427.26.464-.76H110.77Z"/><path stroke-linejoin="round" d="M514.494 14.925a.5.5 0 0 0-.986-.013l-4.823 27.003-21.777 4.094a.5.5 0 0 0 0 .982l21.777 4.094 4.823 27.003a.5.5 0 0 0 .986-.013l4.11-26.99 22.486-4.093a.5.5 0 0 0 0-.984l-22.486-4.093-4.11-26.99ZM827.994-24.074a.5.5 0 0 0-.986-.012l-5.277 30.04-23.825 4.555a.5.5 0 0 0 0 .982l23.825 4.554 5.277 30.041a.499.499 0 0 0 .986-.012l4.497-30.028 24.6-4.554a.5.5 0 0 0 0-.984l-24.6-4.554-4.497-30.028ZM18.993-11.08a.5.5 0 0 0-.984-.014l-3.1 16.154L.914 7.507a.5.5 0 0 0 0 .986l13.994 2.447 3.101 16.154a.5.5 0 0 0 .984-.013l2.642-16.14 14.448-2.448a.5.5 0 0 0 0-.986L21.636 5.059l-2.642-16.14ZM1153.49 10.898a.504.504 0 0 0-.98-.016l-2.96 12.208-9.69 2.931a.499.499 0 0 0 .01.963l9.68 2.508 2.96 12.622c.06.23.26.39.5.386.23-.004.43-.17.48-.401l2.54-12.607 10.09-2.507a.501.501 0 0 0 .02-.965l-10.11-2.93-2.54-12.192Z"/><path d="M706.677 38.95a22.373 22.373 0 0 0-5.57-7.325 21.983 21.983 0 0 0-8.502-4.56 21.785 21.785 0 0 0-9.608-.462 21.933 21.933 0 0 0-8.892 3.723l-.003.003c-4.306 3.11-7.395 7.713-9.773 12.48-3.741-2.036-10.682-3.726-17.746-3.352-7.379.39-15.028 3.044-19.289 10.075-1.684 2.779-2.939 5.963-3.772 8.442a57.586 57.586 0 0 0-.94 3.07 42.269 42.269 0 0 0-.294 1.132l-.015.063-.004.016-.001.005h-.001v.001l.487.114-.487-.114-.142.614H745.386l.018-.482-.181-.007.181.007v-.011l.001-.03a11.484 11.484 0 0 0 .002-.532c-.004-.362-.02-.885-.068-1.53a30.267 30.267 0 0 0-.809-5.072c-.991-3.977-3.105-8.82-7.611-12.115-7.979-5.833-15.65-6.827-21.332-6.352a29.36 29.36 0 0 0-6.806 1.384 22.879 22.879 0 0 0-2.104.815Z"/></g><defs><clipPath id="a"><path fill="#fff" d="M0 0h1280v58H0z"/></clipPath></defs></svg>
