<svg width="70" height="24" viewBox="0 0 70 24" fill="none" xmlns="http://www.w3.org/2000/svg">
<path d="M15.8807 7.79785H11.2031V16.2036H15.8807V7.79785Z" fill="#FF5F00"/>
<path d="M11.4982 12.0001C11.4974 11.1906 11.6809 10.3915 12.0346 9.66331C12.3884 8.93516 12.9031 8.29703 13.54 7.79723C12.7514 7.17736 11.8042 6.79187 10.8069 6.68483C9.80956 6.57778 8.80223 6.75349 7.90003 7.19189C6.99783 7.63028 6.23717 8.31367 5.705 9.16393C5.17283 10.0142 4.89063 10.997 4.89062 12.0001C4.89062 13.0032 5.17283 13.986 5.705 14.8363C6.23717 15.6865 6.99783 16.3699 7.90003 16.8083C8.80223 17.2467 9.80956 17.4224 10.8069 17.3154C11.8042 17.2083 12.7514 16.8228 13.54 16.203C12.9031 15.7031 12.3884 15.065 12.0346 14.3369C11.6809 13.6087 11.4975 12.8096 11.4982 12.0001Z" fill="#EB001B"/>
<path d="M22.192 12.0001C22.1921 13.0031 21.9099 13.986 21.3778 14.8362C20.8456 15.6865 20.085 16.3699 19.1828 16.8083C18.2806 17.2467 17.2733 17.4224 16.276 17.3154C15.2787 17.2083 14.3316 16.8228 13.543 16.203C14.1792 15.7026 14.6936 15.0644 15.0473 14.3364C15.401 13.6083 15.5847 12.8095 15.5847 12.0001C15.5847 11.1907 15.401 10.3918 15.0473 9.66381C14.6936 8.93577 14.1792 8.29753 13.543 7.79723C14.3316 7.17736 15.2787 6.79187 16.276 6.68483C17.2733 6.57778 18.2806 6.7535 19.1828 7.1919C20.085 7.6303 20.8456 8.31368 21.3778 9.16394C21.9099 10.0142 22.1921 10.997 22.192 12.0001Z" fill="#F79E1B"/>
<path d="M31.5336 13.9069V11.6614C31.5336 10.8024 31.0104 10.2399 30.1122 10.2399C29.6631 10.2399 29.1747 10.3882 28.839 10.8765C28.5774 10.4666 28.2024 10.2399 27.6399 10.2399C27.2649 10.2399 26.8899 10.3533 26.5934 10.7631V10.314H25.8086V13.9069H26.5934V11.923C26.5934 11.2864 26.9292 10.9855 27.4524 10.9855C27.9756 10.9855 28.2373 11.3212 28.2373 11.923V13.9069H29.0221V11.923C29.0221 11.2864 29.3971 10.9855 29.8811 10.9855C30.4043 10.9855 30.6659 11.3212 30.6659 11.923V13.9069H31.5336ZM43.1756 10.314H41.9024V9.22832H41.1175V10.314H40.4068V11.0248H41.1175V12.6729C41.1175 13.497 41.4533 13.981 42.3515 13.981C42.6872 13.981 43.0622 13.8677 43.3238 13.7194L43.0971 13.0436C42.8703 13.1918 42.6087 13.231 42.4212 13.231C42.0462 13.231 41.898 13.0043 41.898 12.6337V11.0248H43.1712V10.314H43.1756ZM49.8381 10.2355C49.3889 10.2355 49.0881 10.4623 48.9006 10.7588V10.3097H48.1157V13.9025H48.9006V11.8794C48.9006 11.282 49.1622 10.9419 49.6506 10.9419C49.7988 10.9419 49.9863 10.9811 50.1389 11.016L50.3656 10.2661C50.2087 10.2355 49.9863 10.2355 49.8381 10.2355ZM39.7702 10.6105C39.3952 10.3489 38.872 10.2355 38.3095 10.2355C37.4113 10.2355 36.8139 10.6847 36.8139 11.3954C36.8139 11.9927 37.263 12.3328 38.0479 12.4418L38.4229 12.4811C38.8327 12.5552 39.0595 12.6686 39.0595 12.8561C39.0595 13.1177 38.7586 13.3052 38.2354 13.3052C37.7121 13.3052 37.2979 13.1177 37.0363 12.9302L36.6613 13.5275C37.0712 13.8284 37.6337 13.9767 38.1961 13.9767C39.2426 13.9767 39.8443 13.4883 39.8443 12.8168C39.8443 12.1802 39.356 11.8445 38.6104 11.7311L38.2354 11.6919C37.8996 11.6526 37.638 11.5785 37.638 11.3561C37.638 11.0945 37.8996 10.9463 38.3139 10.9463C38.763 10.9463 39.2121 11.1338 39.4388 11.2471L39.7702 10.6105ZM60.6515 10.2355C60.2024 10.2355 59.9016 10.4623 59.7141 10.7588V10.3097H58.9292V13.9025H59.7141V11.8794C59.7141 11.282 59.9757 10.9419 60.464 10.9419C60.6123 10.9419 60.7998 10.9811 60.9524 11.016L61.1791 10.2748C61.0265 10.2355 60.8041 10.2355 60.6515 10.2355ZM50.6229 12.1105C50.6229 13.1962 51.3729 13.981 52.5327 13.981C53.0559 13.981 53.4309 13.8676 53.8059 13.5712L53.4309 12.9346C53.1301 13.1613 52.8336 13.2703 52.4935 13.2703C51.8569 13.2703 51.4078 12.8212 51.4078 12.1105C51.4078 11.4346 51.8569 10.9855 52.4935 10.9506C52.8292 10.9506 53.1301 11.064 53.4309 11.2864L53.8059 10.6498C53.4309 10.3489 53.0559 10.2399 52.5327 10.2399C51.3729 10.2355 50.6229 11.0248 50.6229 12.1105ZM57.8828 12.1105V10.314H57.0979V10.7631C56.8363 10.4274 56.4613 10.2399 55.973 10.2399C54.9614 10.2399 54.1765 11.0248 54.1765 12.1105C54.1765 13.1962 54.9614 13.981 55.973 13.981C56.4962 13.981 56.8712 13.7935 57.0979 13.4578V13.9069H57.8828V12.1105ZM55.0006 12.1105C55.0006 11.4739 55.4105 10.9506 56.0863 10.9506C56.7229 10.9506 57.172 11.439 57.172 12.1105C57.172 12.7471 56.7229 13.2703 56.0863 13.2703C55.4148 13.2311 55.0006 12.7427 55.0006 12.1105ZM45.6086 10.2355C44.5621 10.2355 43.8122 10.9855 43.8122 12.1061C43.8122 13.2311 44.5621 13.9767 45.6478 13.9767C46.1711 13.9767 46.6943 13.8284 47.1085 13.4883L46.7335 12.9258C46.4327 13.1526 46.0577 13.3008 45.6871 13.3008C45.1987 13.3008 44.7147 13.0741 44.6014 12.4418H47.2568C47.2568 12.3285 47.2568 12.2543 47.2568 12.141C47.2917 10.9855 46.6158 10.2355 45.6086 10.2355ZM45.6086 10.9114C46.0969 10.9114 46.4327 11.2122 46.5068 11.7704H44.6363C44.7104 11.2864 45.0461 10.9114 45.6086 10.9114ZM65.1077 12.1105V8.89258H64.3229V10.7631C64.0613 10.4274 63.6863 10.2399 63.1979 10.2399C62.1863 10.2399 61.4015 11.0248 61.4015 12.1105C61.4015 13.1962 62.1863 13.981 63.1979 13.981C63.7212 13.981 64.0961 13.7935 64.3229 13.4578V13.9069H65.1077V12.1105ZM62.2256 12.1105C62.2256 11.4739 62.6355 10.9506 63.3113 10.9506C63.9479 10.9506 64.397 11.439 64.397 12.1105C64.397 12.7471 63.9479 13.2703 63.3113 13.2703C62.6355 13.2311 62.2256 12.7427 62.2256 12.1105ZM35.9506 12.1105V10.314H35.1657V10.7631C34.9041 10.4274 34.5291 10.2399 34.0408 10.2399C33.0292 10.2399 32.2444 11.0248 32.2444 12.1105C32.2444 13.1962 33.0292 13.981 34.0408 13.981C34.564 13.981 34.939 13.7935 35.1657 13.4578V13.9069H35.9506V12.1105ZM33.0336 12.1105C33.0336 11.4739 33.4434 10.9506 34.1193 10.9506C34.7559 10.9506 35.205 11.439 35.205 12.1105C35.205 12.7471 34.7559 13.2703 34.1193 13.2703C33.4434 13.2311 33.0336 12.7427 33.0336 12.1105Z" fill="black"/>
</svg>
