<svg width="120" height="120" viewBox="0 0 120 120" fill="none" xmlns="http://www.w3.org/2000/svg">
<path d="M30.4188 19.7152L30.3276 20.0535C29.5762 22.8407 28.8248 25.6281 28.0733 28.4158C27.4587 30.6958 25.288 31.8745 23.0529 31.1495C21.5018 30.6461 20.3697 28.9 20.5288 27.2569C20.7524 24.9667 22.6302 23.4286 24.9033 23.7011C25.6131 23.7853 26.2428 24.0909 26.7894 24.5598C26.8684 24.6277 26.9512 24.696 27.0683 24.7968L27.1725 24.4101C28.6005 19.113 30.0285 13.8158 31.4565 8.5187C31.6727 7.71668 32.5312 7.44338 33.0811 8.00048C33.3517 8.27319 33.4121 8.60174 33.3168 8.97491C32.9811 10.2887 33.0152 11.5664 33.7883 12.727C34.1241 13.229 34.5207 13.6922 34.9077 14.1568C35.5875 14.9733 36.3338 15.7398 36.9591 16.5942C37.9388 17.9237 38.2397 19.4537 37.9683 21.0865C37.8838 21.6011 37.7582 22.1113 37.6221 22.6159C37.1704 24.3213 36.7112 26.0246 36.2446 27.726C36.2148 27.8486 36.1609 27.964 36.0859 28.0653C36.011 28.1666 35.9165 28.2518 35.8083 28.3158C35.7 28.3799 35.5801 28.4214 35.4557 28.4379C35.3314 28.4544 35.205 28.4456 35.0842 28.412C34.5672 28.2779 34.2593 27.7901 34.3959 27.2563C34.7486 25.8818 34.6382 24.5802 33.7913 23.411C33.4258 22.9143 33.0304 22.4406 32.6074 21.9925C31.9039 21.2316 31.171 20.494 30.4188 19.7152Z" fill="#FBE3BA"/>
<path d="M105.409 106.304C105.889 106.328 106.379 106.413 106.849 106.354C108.244 106.179 109.357 105.09 109.64 103.7C109.91 102.383 109.302 100.975 108.162 100.231C107.492 99.7937 106.758 99.6462 105.921 99.7102L110.36 89.4011C110.615 88.8104 110.546 88.5042 110.052 88.1034C106.955 85.5841 103.857 83.0659 100.76 80.5488C100.273 80.1561 99.9369 80.1615 99.4106 80.5662L93.4785 94.3425C93.4686 94.4152 93.4642 94.4896 93.4462 94.56C93.1317 95.9741 93.8542 97.5442 95.1324 98.2167C97.1319 99.2713 99.4854 98.2217 100.036 96.0295C100.526 94.0762 99.0597 92.0636 97.0419 91.9262C96.8224 91.9116 96.6007 91.9193 96.3667 91.9144L98.4399 87.0998L106.644 93.7627L106.505 94.0846C105.406 96.6372 104.299 99.1856 103.212 101.743C102.739 102.856 102.866 103.946 103.556 104.932C103.828 105.319 104.236 105.611 104.581 105.946L105.409 106.304Z" fill="#FBE3BA"/>
<path d="M53.3117 79.0973L41.8315 80.9187C41.7979 80.9084 41.7634 80.901 41.7285 80.8967C41.0052 80.8648 40.4982 80.5053 40.2458 79.8418C39.7206 78.4677 39.2218 77.0828 38.7116 75.7024C38.3508 74.727 37.99 73.7517 37.629 72.7763C37.5872 72.663 37.5381 72.6018 37.3892 72.5987C36.9775 72.589 36.5961 72.4489 36.3216 72.1418C36.1225 71.9206 35.9859 71.6434 35.8213 71.3913L35.7478 70.9285C35.7604 70.8964 35.7696 70.8631 35.7754 70.8292C35.8337 69.833 36.6771 69.1087 37.6662 69.2067C38.6365 69.303 39.327 70.2139 39.1584 71.1935C39.1308 71.3527 39.186 71.4001 39.3154 71.452C40.2512 71.828 41.1846 72.2105 42.1185 72.5907C42.3928 72.7024 42.4943 72.6574 42.6034 72.374C43.1749 70.8694 43.7477 69.365 44.3217 67.8609C44.3734 67.7263 44.3573 67.6547 44.2482 67.556C43.3498 66.7427 43.5779 65.2783 44.6769 64.7658C44.7724 64.7213 44.8682 64.6785 44.9637 64.634L45.3013 64.5805C45.3266 64.5919 45.3534 64.5998 45.3808 64.6041C46.7584 64.6443 47.5321 65.9786 46.8635 67.1725C46.7995 67.2871 46.8312 67.3476 46.8985 67.4314C47.9186 68.6955 48.9374 69.9608 49.9549 71.227C50.1247 71.4378 50.2437 71.4487 50.4527 71.2745C51.2503 70.6108 52.047 69.9462 52.8429 69.2807C52.8774 69.2493 52.9103 69.216 52.9413 69.181C52.9198 69.1387 52.9049 69.107 52.8883 69.0764C52.3979 68.1889 52.7245 67.1247 53.6215 66.6861C54.5029 66.2551 55.5481 66.6578 55.9468 67.581C55.9635 67.6118 55.9826 67.6412 56.0041 67.6689L56.0975 68.258C56.0873 68.3027 56.0746 68.3509 56.0678 68.3981C55.9721 69.0603 55.6219 69.542 54.9998 69.796C54.8425 69.8602 54.8008 69.9354 54.7951 70.0821C54.7 72.5045 54.5962 74.9265 54.5093 77.3489C54.4848 78.0261 54.2722 78.5813 53.6601 78.9316C53.5455 78.9973 53.4264 79.0433 53.3117 79.0973Z" fill="#FBE3BA"/>
<path d="M85.9075 20.0675L87.2552 19.7958C87.312 19.7972 87.3685 19.801 87.4252 19.8005C87.9447 19.7838 88.4659 19.7313 88.9835 19.7555C91.0875 19.8553 92.9635 20.5846 94.6095 21.8908C95.9707 22.9709 96.9804 24.3208 97.6128 25.9448C97.737 26.2633 97.8457 26.5881 97.9631 26.9096L98.2348 28.2572C98.2501 28.4781 98.269 28.6991 98.2804 28.92C98.3726 30.684 98.0328 32.359 97.2212 33.9296C96.0912 36.1142 94.3912 37.6859 92.1033 38.6084C91.7808 38.7385 91.4497 38.845 91.1208 38.9623L89.773 39.234C89.7231 39.2316 89.673 39.2265 89.6229 39.2277C89.0536 39.2423 88.4815 39.2996 87.9164 39.2655C85.8445 39.1417 83.9984 38.4045 82.3819 37.109C81.0382 36.0329 80.0405 34.6918 79.4146 33.0825C79.2912 32.7646 79.1831 32.4408 79.0678 32.1201L78.7961 30.7725C78.7964 30.7101 78.7997 30.6475 78.7973 30.5853C78.7779 30.193 78.7337 29.8003 78.7401 29.4087C78.7761 27.1736 79.5009 25.1779 80.8848 23.4275C81.965 22.061 83.3185 21.0484 84.9471 20.415C85.262 20.2919 85.586 20.1834 85.9075 20.0675ZM95.5797 31.8609C96.382 29.2392 95.9993 26.8579 94.2657 24.7633C92.7034 22.8769 90.6463 22.0089 88.1865 22.0385C88.1937 22.1032 88.195 22.1345 88.2011 22.1649C88.5645 23.9674 88.9294 25.7698 89.2959 27.572C89.3117 27.6506 89.3868 27.7352 89.4571 27.7826C90.7265 28.6317 91.9978 29.478 93.2711 30.3213C94.0287 30.8269 94.7855 31.332 95.5797 31.8609ZM82.9016 34.4036C82.9472 34.3418 82.9785 34.3036 83.0057 34.2627C84.3336 32.2646 85.6602 30.2656 86.9852 28.2657C87.0334 28.1813 87.0501 28.0826 87.0323 27.9871C86.6832 26.2271 86.33 24.4674 85.9727 22.708L85.9349 22.5208C84.1285 23.1164 81.9727 24.8856 81.2756 27.6755C80.6489 30.1863 81.2291 32.4187 82.9016 34.4036ZM89.9785 30.9368L91.1012 36.5058C92.1255 36.2647 94.0327 34.7949 94.4768 33.9251L89.9785 30.9368ZM87.7158 31.4047L84.7288 35.8996C85.6919 36.5839 88.0184 37.1842 88.8339 36.9505L87.7158 31.4047Z" fill="#FBE3BA"/>
</svg>
