<svg xmlns="http://www.w3.org/2000/svg" width="474" height="194" fill="none"><g clip-path="url(#a)"><path fill="#FFEDC9" d="M0 126.4h474v39.5H0z"/><path fill="#FFE2AD" stroke="#2F2F2F" d="M-1.29 195.69v.5h476.58V57.769l-.451-.044c-27.136-2.656-54.61-1.688-81.6 2.009l-20.529 2.812a349.521 349.521 0 0 1-94.663 0l-20.529-2.812a347.988 347.988 0 0 0-12.184-1.45c2.094-1.889 5.071-4.736 7.52-7.703 1.401-1.698 2.644-3.454 3.448-5.106.795-1.636 1.204-3.262.791-4.652-.129-.432-.319-.797-.588-1.067a1.62 1.62 0 0 0-.984-.475c-.705-.08-1.481.25-2.231.732-1.525.98-3.34 2.852-5.059 4.864-1.73 2.025-3.399 4.238-4.635 5.942-.345.475-.656.911-.925 1.293.057-.57.123-1.248.193-2.004.219-2.36.474-5.497.621-8.59.146-3.085.186-6.152-.033-8.365-.108-1.096-.284-2.037-.572-2.671-.143-.315-.341-.616-.631-.797-.324-.202-.689-.212-1.037-.065-.609.258-1.075.902-1.449 1.652-.387.775-.73 1.777-1.036 2.91-.613 2.269-1.099 5.14-1.473 7.947-.225 1.689-.411 3.36-.561 4.871a169.66 169.66 0 0 0-.612-5.546c-.375-2.907-.849-5.815-1.432-7.962-.29-1.068-.616-1.984-.988-2.62-.186-.318-.402-.6-.661-.793-.272-.2-.605-.31-.971-.23-.339.074-.607.284-.814.537a3.449 3.449 0 0 0-.51.931c-.278.715-.481 1.666-.63 2.748-.299 2.171-.398 4.983-.399 7.753-.002 2.774.095 5.524.192 7.58.033.705.066 1.33.096 1.845a81.862 81.862 0 0 0-.731-.877c-1.041-1.23-2.448-2.819-3.907-4.24-1.445-1.408-2.99-2.7-4.301-3.284-.651-.29-1.336-.447-1.949-.254-.653.206-1.075.757-1.29 1.538-.306 1.108-.138 2.329.289 3.545.429 1.221 1.133 2.483 1.958 3.7 1.358 2.003 3.075 3.934 4.531 5.434a350.402 350.402 0 0 0-61.981 2.929l-20.529 2.812a349.524 349.524 0 0 1-94.663 0l-.009-.001-.008-.001-48.113-4.976-.551-.057V195.69Z"/><path fill="#FAD99C" d="M-.79 193.69V81.475l48.113 4.357a349.7 349.7 0 0 0 94.799 0l20.529-2.815a349.698 349.698 0 0 1 94.799 0l20.529 2.815a349.698 349.698 0 0 0 94.799 0l20.529-2.815a349.809 349.809 0 0 1 81.483-1.564V193.69H-.79Z"/></g><defs><clipPath id="a"><path fill="#fff" d="M0 0h474v193H0z"/></clipPath></defs></svg>
