<svg width="70" height="24" viewBox="0 0 70 24" fill="none" xmlns="http://www.w3.org/2000/svg">
<path d="M54.0687 17.1908C53.1164 17.1908 52.1641 17.1908 51.1976 17.1908C51.0926 16.7367 50.9799 16.2924 50.8909 15.8444C50.854 15.6584 50.7879 15.5863 50.5572 15.589C49.4059 15.6023 48.2544 15.599 47.103 15.5908C46.9287 15.5896 46.8595 15.6413 46.8064 15.7842C46.6478 16.2111 46.4744 16.6338 46.2969 17.0547C46.2728 17.1119 46.193 17.1903 46.1383 17.1907C45.1005 17.1988 44.0626 17.1967 42.9949 17.1967C43.1895 16.7751 43.3738 16.3726 43.5608 15.9712C44.8989 13.0992 46.2375 10.2274 47.5761 7.3556C47.866 6.7336 48.3006 6.47314 49.0482 6.4731C49.8813 6.47305 50.7144 6.47309 51.5689 6.47309C51.6522 6.82322 51.7361 7.16824 51.8163 7.51394C52.4748 10.3521 53.1317 13.1905 53.7917 16.0284C53.8763 16.3919 53.976 16.7526 54.0687 17.1145C54.0687 17.14 54.0687 17.1654 54.0687 17.1908ZM50.311 13.3822C50.005 12.0625 49.7031 10.7605 49.4013 9.45853C49.389 9.45636 49.3766 9.45419 49.3643 9.45202C48.8383 10.7573 48.3123 12.0625 47.7804 13.3822C48.6395 13.3822 49.4619 13.3822 50.311 13.3822Z" fill="#1434CB"/>
<path d="M41.5609 6.28223C41.9398 6.34552 42.3216 6.39755 42.6968 6.4754C43.0391 6.54645 43.3743 6.64546 43.7382 6.73869C43.5548 7.51016 43.3757 8.26315 43.2006 8.99989C42.7206 8.87325 42.2617 8.72743 41.7901 8.63379C41.145 8.50571 40.4841 8.4569 39.8388 8.61867C39.5764 8.68443 39.3109 8.8107 39.1044 8.96988C38.7501 9.24292 38.7454 9.63597 39.0838 9.92263C39.3171 10.1203 39.5936 10.2826 39.8699 10.432C40.4981 10.7719 41.1577 11.0674 41.7682 11.4304C42.4872 11.8579 43.0117 12.4457 43.1217 13.2404C43.3165 14.646 42.7387 15.7531 41.4262 16.5364C40.6009 17.0289 39.6669 17.2489 38.6937 17.3304C37.3349 17.4441 36.003 17.3072 34.7046 16.9235C34.6176 16.8978 34.5328 16.8657 34.448 16.8344C34.4227 16.8251 34.4006 16.8086 34.3618 16.7868C34.5452 16.0142 34.7289 15.2404 34.9177 14.4449C35.139 14.5318 35.3468 14.619 35.5591 14.6959C36.5735 15.0636 37.621 15.2318 38.7067 15.0488C38.9892 15.0012 39.2772 14.889 39.5166 14.7446C40.0362 14.4313 40.086 13.8426 39.6129 13.4746C39.302 13.2327 38.9283 13.054 38.574 12.8599C38.0206 12.5567 37.4328 12.2983 36.9092 11.9589C36.238 11.5239 35.7518 10.9439 35.6597 10.173C35.5217 9.01872 35.9979 8.08148 36.9828 7.35323C37.8397 6.71959 38.8572 6.43839 39.9411 6.32029C40.0014 6.31372 40.06 6.29519 40.1193 6.28223C40.5998 6.28223 41.0804 6.28223 41.5609 6.28223Z" fill="#1434CB"/>
<path d="M30.3959 6.48182C30.2345 6.83096 30.0818 7.16385 29.9271 7.49596C28.4494 10.667 26.9699 13.8374 25.4983 17.0107C25.4282 17.1619 25.3424 17.2016 25.172 17.2003C24.2394 17.1934 23.3065 17.1906 22.3741 17.2022C22.1763 17.2046 22.1119 17.1423 22.0664 16.9827C21.2757 14.211 20.4719 11.4422 19.6902 8.66846C19.5468 8.15958 19.2597 7.81203 18.7213 7.59873C17.8582 7.25682 16.9622 7.01664 16.0484 6.82142C16.0079 6.81278 15.9677 6.80334 15.9297 6.7948C15.9342 6.47311 15.9342 6.47309 16.2744 6.47309C17.9065 6.47309 19.5387 6.47276 21.1709 6.47323C21.945 6.47346 22.5038 6.87801 22.6502 7.56732C23.0645 9.51871 23.4701 11.4716 23.8793 13.4239C23.8972 13.5093 23.9176 13.5942 23.9448 13.7144C23.9871 13.6429 24.0166 13.6027 24.0359 13.5588C25.0497 11.2522 26.0637 8.94576 27.0722 6.63736C27.1273 6.51134 27.1952 6.4686 27.3464 6.46968C28.2932 6.47643 29.24 6.47295 30.1868 6.47342C30.248 6.47345 30.3092 6.4782 30.3959 6.48182Z" fill="#1434CB"/>
<path d="M29.1598 17.197C30.0125 13.6123 30.8592 10.0528 31.7079 6.48454C32.7404 6.48454 33.7606 6.48454 34.8005 6.48454C34.6717 7.02801 34.5459 7.56109 34.4192 8.09402C33.7186 11.0413 33.0153 13.9882 32.3224 16.9369C32.2743 17.1418 32.1936 17.2069 31.9571 17.2028C31.1096 17.1881 30.2616 17.197 29.4138 17.197C29.3378 17.197 29.2617 17.197 29.1598 17.197Z" fill="#1434CB"/>
</svg>
